<svg xmlns="http://www.w3.org/2000/svg" width="314" height="314" xmlns:xlink="http://www.w3.org/1999/xlink"><g fill="none"><path d="M0 0h314v314H0"/><path fill="#E44D26" d="M74.37 274.1L56 67.98h201.9l-18.4 206.04-82.65 22.94"/><path fill="#F16529" d="M156.96 279.45l66.77-18.52 15.75-176.07h-82.52"/><path fill="#EBEBEB" d="M156.96 161.27H123.5l-2.33-25.87H157v-25.32H93.56l.62 6.8 6.16 69.68h56.6m0 40.32l-.13.06-28.13-7.6-1.8-20.16h-25.4l3.6 39.74 51.75 14.32h.14"/><path fill="#000" d="M74.77 12H87.6v12.66h11.75V12h12.87v38.44h-12.8V37.56H87.67v12.88H74.8V12m54.3 12.75h-11.3V12h35.5v12.75h-11.35v25.7H129.1v-25.7M158.9 12h13.4l8.2 13.5 8.25-13.5h13.4v38.44h-12.78V31.4l-8.86 13.63h-.2l-8.8-13.63v19.03h-12.6M208.5 12h12.9v25.72h18.05v12.72h-30.87"/><path fill="#FFF" d="M156.86 161.27v25.32h31.12l-2.93 32.7-28.2 7.62v26.3l51.82-14.32.37-4.3 5.96-66.55.6-6.8h-6.78m-51.96-51.14v25.3h61.07l.5-5.7 1.17-12.8.6-6.8"/></g></svg>