<svg width="1024" height="1024" viewBox="0 0 1024 1024" xmlns="http://www.w3.org/2000/svg">
  <title>
    git
  </title>
  <path d="M873 312.7c-37.2-64-88-114.7-151.8-152-64-37.3-134-56-209.6-56-75.8 0-145.7 18.7-209.6 56-64 37.3-114.7 88-152 152S94 446.5 94 522.3c0 91 26.5 172.8 79.7 245.5 53 72.6 121.7 123 205.7 150.8 9.8 2 17 .6 21.8-3.8 4.7-4.3 7-9.7 7-16.3l-.2-29.3-.3-48.4-12.5 2.2c-8 1.4-18 2-30.2 2-12-.3-24.7-1.6-37.8-4-13-2.3-25.2-7.7-36.4-16.2-11.2-8.6-19.2-19.7-24-33.5l-5.3-12.5c-3.7-8.3-9.4-17.6-17.2-27.7-7.8-10-15.6-17-23.6-20.6l-3.8-2.7c-2.7-1.8-5-4-7.2-6.5-2.2-2.6-3.8-5-5-7.6-1-2.6 0-4.7 2.8-6.3 3-1.6 8.2-2.4 15.8-2.4l11 1.5c7 1.4 16 5.8 26.8 13 10.7 7.3 19.5 16.7 26.4 28.3 8.3 15 18.3 26.2 30 34 12 7.8 23.8 11.7 35.7 11.7 12 0 22.3-1 31-2.7 8.7-2 17-4.6 24.5-8.2 3.3-24.3 12-43 26.6-56-20.6-2.2-39.2-5.4-55.7-9.8s-33.5-11.4-51-21.2c-17.7-9.8-32.3-22-44-36.4-11.5-14.5-21-33.6-28.4-57-7.4-23.7-11.2-51-11.2-81.7 0-44 14.5-81.2 43-112-13.3-33-12-70 4-111 10.4-3.2 26-.7 46.7 7.4 20.6 8 35.8 15 45.4 21 9.7 5.7 17.4 10.6 23.2 14.5 33.7-9.4 68.5-14 104.4-14 35.8 0 70.6 4.6 104.4 14l20.6-13c14-8.7 30.8-16.7 50-24 19.2-7.2 34-9.2 44-6 16.4 41 17.8 78 4.4 111 28.7 30.8 43 68.2 43 112 0 30.8-3.7 58-11.2 81.8-7.4 23.8-17 42.8-28.8 57-11.8 14.5-26.4 26.5-44 36.3-17.6 9.8-34.6 16.8-51 21.2-16.6 4.4-35.2 7.6-55.8 9.8 18.8 16.3 28.2 42 28.2 77.2v114.7c0 6.5 2.3 12 6.8 16.3 4.5 4.4 11.7 5.6 21.5 3.8 84-28 152.7-78.2 205.8-151 53-72.5 79.6-154.4 79.6-245.3 0-75.8-18.6-145.6-56-209.6z" fill="#000" fill-rule="evenodd"/>
</svg>
