<svg xmlns="http://www.w3.org/2000/svg" width="192" height="192" xmlns:xlink="http://www.w3.org/1999/xlink"><defs><rect id="a" width="151.42" height="151.42" rx="27"/></defs><g fill="none" fill-rule="evenodd" transform="translate(20 20)"><mask id="b" fill="#fff"><use xlink:href="#a"/></mask><use fill="#163133" xlink:href="#a"/><g fill="#61DAFB" fill-rule="nonzero" transform="translate(15.59 21.436)" mask="url(#b)"><path d="M120.5 53.63c0-7.98-10-15.54-25.3-20.23 3.54-15.6 1.97-28.02-4.95-32C88.65.47 86.8.02 84.75.02V5.5c1.14 0 2.05.22 2.8.64 3.34 1.9 4.8 9.2 3.66 18.58-.2 2.3-.7 4.73-1.2 7.2-4.8-1.17-10-2.07-15.5-2.66-3.3-4.54-6.7-8.67-10.2-12.28 8-7.43 15.5-11.5 20.6-11.5V0c-6.8 0-15.7 4.8-24.6 13.16C51.4 4.86 42.6.1 35.8.1v5.47c5.08 0 12.6 4.05 20.6 11.44-3.43 3.7-6.86 7.8-10.13 12.3-5.54.6-10.8 1.5-15.6 2.7-.56-2.4-.97-4.8-1.27-7.1-1.15-9.4.27-16.6 3.58-18.6.74-.4 1.7-.6 2.82-.6V.2c-2.06 0-3.92.4-5.54 1.4-6.9 3.9-8.44 16.3-4.88 31.9C10.1 38.1.16 45.7.16 53.6c0 7.98 10 15.54 25.3 20.2-3.53 15.6-1.96 28.05 4.95 32 1.6.96 3.5 1.4 5.6 1.4 6.8 0 15.6-4.8 24.5-13.15 9 8.3 17.8 13.04 24.5 13.04 2.1 0 4-.5 5.6-1.4 6.9-4 8.5-16.4 4.9-32 15.2-4.7 25.2-12.3 25.2-20.2zM88.55 37.26c-.9 3.16-2.03 6.43-3.3 9.7-1.02-1.97-2.07-3.93-3.22-5.9-1.13-1.96-2.33-3.88-3.53-5.74 3.5.5 6.85 1.15 10.06 1.94zM77.33 63.4c-1.9 3.3-3.88 6.45-5.9 9.37-3.67.32-7.37.5-11.1.5-3.7 0-7.4-.18-11.03-.47-2.04-2.92-4.03-6.04-5.94-9.33-1.86-3.2-3.56-6.48-5.1-9.77 1.52-3.3 3.24-6.58 5.08-9.8 1.9-3.3 3.87-6.45 5.9-9.37 3.66-.32 7.36-.5 11.1-.5 3.7 0 7.4.18 11.03.48 2.03 3 4.02 6.1 5.93 9.4 1.87 3.2 3.56 6.5 5.1 9.8-1.54 3.3-3.23 6.6-5.07 9.8zm7.92-3.2c1.32 3.3 2.45 6.58 3.38 9.77-3.2.8-6.6 1.45-10.1 1.97 1.2-1.9 2.4-3.83 3.53-5.82 1.13-1.96 2.18-3.95 3.2-5.9zM60.38 86.4c-2.28-2.36-4.56-5-6.82-7.86 2.2.1 4.47.17 6.75.17 2.3 0 4.6 0 6.9-.1-2.2 2.9-4.5 5.5-6.7 7.9zM42.13 71.93c-3.48-.52-6.84-1.16-10.05-1.94.9-3.2 2.03-6.5 3.3-9.7 1.02 1.9 2.07 3.9 3.22 5.9 1.16 1.9 2.33 3.8 3.53 5.7zm18.13-51.08c2.28 2.36 4.56 4.98 6.82 7.86-2.2-.1-4.47-.1-6.75-.1-2.3 0-4.58.1-6.82.2 2.3-2.8 4.5-5.5 6.8-7.8zM42.1 35.32c-1.2 1.9-2.4 3.83-3.52 5.82-1.13 1.96-2.18 3.92-3.2 5.9-1.3-3.3-2.44-6.6-3.37-9.78 3.3-.76 6.6-1.43 10.1-1.94zM19.9 66.05c-8.67-3.7-14.28-8.57-14.28-12.42 0-3.85 5.6-8.74 14.3-12.42 2.1-.9 4.4-1.7 6.8-2.4 1.4 4.8 3.23 9.8 5.5 15-2.25 5.1-4.06 10.1-5.44 14.9-2.43-.7-4.73-1.6-6.87-2.5zm13.2 35.07c-3.33-1.9-4.77-9.2-3.65-18.58.27-2.3.72-4.74 1.26-7.2C35.5 76.5 40.8 77.4 46.3 78c3.3 4.54 6.74 8.66 10.2 12.27-8 7.44-15.5 11.5-20.6 11.5-1.1 0-2.04-.23-2.77-.65zm58.18-18.7c1.16 9.37-.27 16.66-3.58 18.6-.73.44-1.7.64-2.82.64-5.07 0-12.6-4.05-20.6-11.44 3.43-3.6 6.87-7.7 10.13-12.24 5.6-.6 10.8-1.5 15.6-2.7.6 2.48 1 4.86 1.3 7.14zm9.45-16.37c-2.1.9-4.42 1.72-6.8 2.48-1.4-4.8-3.24-9.82-5.52-14.95 2.3-5.1 4.1-10.1 5.5-14.87 2.5.8 4.8 1.6 6.9 2.5 8.7 3.8 14.3 8.6 14.3 12.5 0 3.9-5.6 8.8-14.3 12.4z"/><ellipse cx="60.31" cy="53.63" rx="11.21" ry="11.22"/></g></g></svg>