<svg xmlns="http://www.w3.org/2000/svg" viewBox="0 0 192 192"><path fill="#F4DC32" d="M87.8 97.5H126l-23 38.2 26.8-.9L86 184l8-34-25.3.9 19.1-53.4z"/><path opacity=".08" fill="#010202" d="M129.9 134.9l-17.7 19.8-35.3-26.8 22.7-22.5 13.9 11.8-10.4 18.2"/><path fill="#B8B8B8" d="M123.8 53.3C117.8 27.4 94.6 8 66.7 8 34.2 8 8.1 34.3 8.1 66.7c0 32.5 26.3 58.7 58.7 58.7h78.1c21.6 0 39.1-17.6 39.1-39.1s-17.5-39.1-39.1-39.1c-7.9-.1-15.1 2.4-21.1 6.1z"/><path opacity=".02" fill="#020202" d="M123.8 53.2c1 4.3 1.6 8.8 1.6 13.5 0 32-25.5 57.9-57.4 58.7h76.8c17.2 0 31.6-11 37-26.4l-58-45.8z"/><g><path fill="#61A3F3" d="M144.4 145.9c-1.2 5-5.1 8.4-10.1 7.2s-7.2-5.9-6-11c1.2-5 11.7-13.2 11.7-13.2s5.5 12.1 4.4 17z"/><path opacity=".1" fill="#3F51B5" d="M144.4 145.9c-1.2 5-5.1 8.4-10.1 7.2l5.5-24.2c0 .2 5.7 12.1 4.6 17z"/></g></svg>