<?xml version="1.0" encoding="utf-8"?>
<!-- Generator: Adobe Illustrator 19.2.1, SVG Export Plug-In . SVG Version: 6.00 Build 0)  -->
<svg version="1.1" id="Layer_1" xmlns="http://www.w3.org/2000/svg" xmlns:xlink="http://www.w3.org/1999/xlink" x="0px" y="0px"
	 viewBox="0 0 192 192" enable-background="new 0 0 192 192" xml:space="preserve">
<g>
	<path fill="#EDF2F5" d="M123.8,61.3c-6-25.9-29.2-45.4-57.1-45.4C34.2,15.9,8,42.2,8,74.6c0,32.5,26.3,58.7,58.7,58.7h78.2
		c21.6,0,39.1-17.6,39.1-39.1s-17.5-39.1-39.1-39.1C137.1,55.1,129.8,57.5,123.8,61.3z"/>
</g>
<path opacity="2.000000e-02" fill="#020202" enable-background="new    " d="M123.8,61.1c1,4.3,1.6,8.8,1.6,13.5
	c0,32-25.6,58-57.4,58.7h76.9c17.2,0,31.7-11,37-26.4L123.8,61.1z"/>
<path fill="#61A3F3" d="M100.8,159.2c-1.1,4.6-4.7,7.8-9.4,6.7c-4.6-1.1-6.7-5.5-5.6-10.2c1.1-4.6,10.8-12.2,10.8-12.2
	S101.9,154.5,100.8,159.2z"/>
<path opacity="0.1" fill="#3F51B5" enable-background="new    " d="M100.8,159.2c-1.1,4.6-4.7,7.8-9.4,6.7l5.1-22.4
	C96.6,143.3,101.9,154.5,100.8,159.2z"/>
</svg>
