<?xml version="1.0" encoding="utf-8"?>
<!-- Generator: Adobe Illustrator 20.1.0, SVG Export Plug-In . SVG Version: 6.00 Build 0)  -->
<svg version="1.1" id="Layer_1" xmlns="http://www.w3.org/2000/svg" xmlns:xlink="http://www.w3.org/1999/xlink" x="0px" y="0px"
	 viewBox="0 0 192 192" enable-background="new 0 0 192 192" xml:space="preserve">
<path opacity="2.000000e-02" fill="#020202" enable-background="new    " d="M107,65.7c0,8.3,6.1,15.1,14.7,15.1h30.9
	c12.8,0,22.3-10.2,22.3-22.7S107,57.4,107,65.7z"/>
<path opacity="2.000000e-02" fill="#020202" d="M106.9,65.5c0,8.3,6.1,15.1,14.6,15.1h30.9c12.8,0,22.3-10.2,22.3-22.7
	C174.8,45.3,106.9,57.2,106.9,65.5L106.9,65.5z"/>
<path opacity="2.000000e-02" fill="#020202" d="M107,65.2c0,8.3,6.1,15.1,14.7,15.1h30.9c12.8,0,22.3-10.2,22.3-22.7
	S107,56.9,107,65.2z"/>
<path opacity="2.000000e-02" fill="#020202" d="M106.9,65.3c0,8.3,6.1,15.1,14.7,15.1h30.9c12.8,0,22.3-10.2,22.3-22.7
	S106.9,57,106.9,65.3z"/>
<path opacity="2.000000e-02" fill="#020202" d="M106.7,65.1c0,8.3,6.1,15.1,14.7,15.1h30.9c12.8,0,22-10.2,22-22.8
	C174.4,45,106.7,56.8,106.7,65.1z"/>
<path opacity="2.000000e-02" fill="#020202" d="M106.8,65.2c0,8.3,6.1,15.1,14.7,15.1h30.9c12.8,0,22.2-10.3,22.2-22.9
	C174.6,44.9,106.8,56.9,106.8,65.2L106.8,65.2z"/>
<path opacity="2.000000e-02" fill="#020202" d="M106.8,65.1c0,8.3,5.9,14.9,14.5,15.2c5.9,0.2,23.9,0,30.9,0
	c12.8,0,22.2-10.3,22.2-22.9C174.4,44.9,106.8,56.8,106.8,65.1L106.8,65.1z"/>
<path fill="#E9E9E9" d="M121.7,49.5c-8.5,0-15.4,6.9-15.4,15.4s6.9,15.4,15.4,15.4h30.8c12.7,0,23.1-10.3,23.1-23.1
	s-10.3-23.1-23.1-23.1c-11,0-20.2,7.7-22.5,17.9C127.6,50.4,124.7,49.5,121.7,49.5z"/>
<path opacity="2.000000e-02" fill="#020202" enable-background="new    " d="M107.1,69.8c2.1,6.1,7.8,10.4,14.6,10.4H152
	c-12.5-0.3-22.6-10.5-22.6-23.1c0-1.9,0.2-3.6,0.6-5.3L107.1,69.8z"/>
<path opacity="2.000000e-02" fill="#020202" enable-background="new    " d="M26,104.6c0,24.3,18.3,43.9,43.1,43.9h59.8
	c16.5,0,28.4-13.2,28.4-29.2S26.1,80.4,26,104.6z"/>
<path opacity="2.000000e-02" fill="#020202" d="M157.4,118.8c0-16-131.2-38.9-131.2-14.7c0,24.3,18.3,43.9,43.1,43.9h59.8
	C145.6,148,157.4,134.8,157.4,118.8L157.4,118.8z"/>
<path opacity="2.000000e-02" fill="#020202" d="M26,103.7c0,24.3,18.3,43.9,43.1,43.9h59.8c16.5,0,28.4-13.2,28.4-29.2
	S26.1,79.5,26,103.7z"/>
<path opacity="2.000000e-02" fill="#020202" d="M26.2,103.7c0,24.3,18.3,43.9,43.1,43.9H129c16.5,0,28.4-13.2,28.4-29.2
	S26.3,79.6,26.2,103.7z"/>
<path opacity="2.000000e-02" fill="#020202" d="M27,103.3c0,24.3,17.8,44,42.6,44h59.8c16.5,0,28.4-13.2,28.4-29.2
	S27.1,79.2,27,103.3z"/>
<path opacity="2.000000e-02" fill="#020202" d="M157.7,118.3c0-16-130.9-39.2-130.9-15c0,24.3,18,44.2,42.8,44.2h59.8
	C145.8,147.5,157.7,134.3,157.7,118.3L157.7,118.3z"/>
<path opacity="2.000000e-02" fill="#020202" d="M157.7,118c0-16-130.6-39-130.6-14.8c0,24.3,18,44.2,42.8,44.2
	c13.5,0,48.4,0.3,59.8,0C146.2,146.8,157.7,134.1,157.7,118L157.7,118z"/>
<path fill="#EDF2F5" d="M112.9,92.6C108.4,72.9,90.8,58,69.5,58c-24.7,0-44.6,20.1-44.6,44.7c0,24.7,20.1,44.6,44.6,44.6H129
	c16.4,0,29.7-13.4,29.7-29.7S145.4,87.9,129,87.9C123,87.9,117.5,89.7,112.9,92.6z"/>
<path opacity="2.000000e-02" fill="#020202" enable-background="new    " d="M112.9,92.3c0.8,3.3,1.2,6.7,1.2,10.3
	c0,24.4-19.5,44.1-43.6,44.6H129c13.1,0,24.1-8.4,28.1-20.1L112.9,92.3z"/>
</svg>
