<?xml version="1.0" encoding="utf-8"?>
<!-- Generator: Adobe Illustrator 19.2.1, SVG Export Plug-In . SVG Version: 6.00 Build 0)  -->
<svg version="1.1" id="Layer_1" xmlns="http://www.w3.org/2000/svg" xmlns:xlink="http://www.w3.org/1999/xlink" x="0px" y="0px"
	 viewBox="0 0 192 192" enable-background="new 0 0 192 192" xml:space="preserve">
<path opacity="0.4" fill="#F4F4F4" enable-background="new    " d="M9.6,97.7c0,31.9,24.1,57.7,56.7,57.7h78.6
	c21.7,0,37.3-17.3,37.3-38.4S9.7,65.9,9.6,97.7z"/>
<path fill="#F2F2F2" d="M182.4,116.4c0-21-172.5-51.1-172.5-19.3c0,31.9,24.1,57.7,56.7,57.7h78.6
	C166.8,154.8,182.4,137.5,182.4,116.4L182.4,116.4z"/>
<path fill="#EFEFEF" d="M9.6,96.5c0,31.9,24.1,57.7,56.7,57.7h78.6c21.7,0,37.3-17.3,37.3-38.4S9.7,64.8,9.6,96.5z"/>
<path fill="#EDEDED" d="M9.8,96.6c0,31.9,24.1,57.7,56.7,57.7H145c21.7,0,37.3-17.3,37.3-38.4C182.3,94.9,9.9,64.9,9.8,96.6z"/>
<path fill="#E3E3E3" d="M10.9,96.2c0,31.9,23.4,57.9,56,57.9h78.6c21.7,0,37.3-17.3,37.3-38.4S11,64.4,10.9,96.2z"/>
<path fill="#E5E5E5" d="M182.7,115.7c0-21.1-172.2-51.5-172.2-19.7c0,31.9,23.7,58.1,56.3,58.1h78.6
	C167.1,154.1,182.7,136.8,182.7,115.7L182.7,115.7z"/>
<path fill="#D3D3D3" d="M182.7,115.4c0-21.1-171.7-51.3-171.7-19.5c0,31.9,23.7,58.1,56.3,58.1c17.8,0,63.7,0.4,78.6,0
	C167.6,153.4,182.7,136.5,182.7,115.4L182.7,115.4z"/>
<path fill="#EDF2F5" d="M123.8,81.9c-5.9-25.9-29.1-45.4-57.1-45.4C34.2,36.5,8,62.9,8,95.3C8,127.8,34.4,154,66.7,154h78.2
	c21.6,0,39.1-17.6,39.1-39.1s-17.5-39.1-39.1-39.1C137.1,75.8,129.8,78.2,123.8,81.9z"/>
<path opacity="2.000000e-02" fill="#020202" enable-background="new    " d="M123.8,81.6c1,4.3,1.6,8.8,1.6,13.5
	c0,32.1-25.6,58-57.4,58.7h76.9c17.2,0,31.7-11,37-26.4L123.8,81.6z"/>
</svg>
