<?xml version="1.0" encoding="utf-8"?>
<!-- Generator: Adobe Illustrator 19.2.1, SVG Export Plug-In . SVG Version: 6.00 Build 0)  -->
<svg version="1.1" id="Layer_1" xmlns="http://www.w3.org/2000/svg" xmlns:xlink="http://www.w3.org/1999/xlink" x="0px" y="0px"
	 viewBox="0 0 192 192" enable-background="new 0 0 192 192" xml:space="preserve">
<path fill="#ECF1F4" d="M75.8,154.3l-5.8-3.4l5.8-3.4c1-0.5,1.2-1.7,0.7-2.6c-0.5-1-1.7-1.2-2.6-0.7l-5.8,3.4v-6.8
	c0-1.1-0.9-1.9-1.9-1.9c-1.1,0-1.9,0.9-1.9,1.9v6.8l-5.8-3.4c-1-0.5-2.1-0.2-2.6,0.7c-0.5,1-0.2,2.1,0.7,2.6l5.8,3.4l-5.8,3.4
	c-1,0.5-1.2,1.7-0.7,2.6c0.5,1,1.7,1.2,2.6,0.7l5.8-3.4v6.8c0,1.1,0.9,1.9,1.9,1.9c1.1,0,1.9-0.9,1.9-1.9v-6.8l5.8,3.4
	c1,0.5,2.1,0.2,2.6-0.7C76.8,156,76.5,154.8,75.8,154.3z M108.5,170.3l-5.8-3.4l5.8-3.4c1-0.5,1.2-1.7,0.7-2.6
	c-0.5-1-1.7-1.2-2.6-0.7l-5.8,3.4v-6.8c0-1.1-0.9-1.9-1.9-1.9s-1.9,0.9-1.9,1.9v6.8l-5.8-3.4c-1-0.5-2.1-0.2-2.6,0.7
	c-0.5,1-0.2,2.1,0.7,2.6l5.8,3.4l-5.8,3.4c-1,0.5-1.2,1.7-0.7,2.6c0.5,1,1.7,1.2,2.6,0.7l5.8-3.4v6.8c0,1.1,0.9,1.9,1.9,1.9
	s1.9-0.9,1.9-1.9v-6.8l5.8,3.4c1,0.5,2.1,0.2,2.6-0.7S109.4,170.8,108.5,170.3z M141.4,153.4l-5.8-3.4l5.8-3.4
	c1-0.5,1.2-1.7,0.7-2.6c-0.5-1-1.7-1.2-2.6-0.7l-5.8,3.4V140c0-1.1-0.9-1.9-1.9-1.9c-1.1,0-1.9,0.9-1.9,1.9v6.8l-5.8-3.4
	c-1-0.5-2.1-0.2-2.6,0.7c-0.5,1-0.2,2.1,0.7,2.6l5.8,3.4l-5.8,3.4c-1,0.5-1.2,1.7-0.7,2.6c0.5,1,1.7,1.2,2.6,0.7l5.8-3.4v6.8
	c0,1.1,0.9,1.9,1.9,1.9c1.1,0,1.9-0.9,1.9-1.9v-6.8l5.8,3.4c1,0.5,2.1,0.2,2.6-0.7C142.6,155,142.3,153.9,141.4,153.4L141.4,153.4z"
	/>
<path fill="#ECF1F4" d="M123.8,58.5c-6-25.9-29.2-45.4-57.1-45.4C34.2,13.1,8,39.4,8,71.8c0,32.5,26.3,58.7,58.7,58.7h78.2
	c21.6,0,39.1-17.6,39.1-39.1s-17.5-39.1-39.1-39.1C137.1,52.3,129.8,54.7,123.8,58.5z"/>
<path opacity="2.000000e-02" fill="#020202" enable-background="new    " d="M123.8,58.3c1,4.3,1.6,8.8,1.6,13.5
	c0,32-25.6,58-57.4,58.7h76.9c17.2,0,31.7-11,37-26.4L123.8,58.3z"/>
</svg>
