<?xml version="1.0" encoding="UTF-8"?>
<svg width="161px" height="168px" viewBox="0 0 161 168" version="1.1" xmlns="http://www.w3.org/2000/svg" xmlns:xlink="http://www.w3.org/1999/xlink">
    <!-- Generator: Sketch 44 (41411) - http://www.bohemiancoding.com/sketch -->
    <title>weather-icon-23</title>
    <desc>Created with Sketch.</desc>
    <defs></defs>
    <g id="Page-1" stroke="none" stroke-width="1" fill="none" fill-rule="evenodd">
        <g id="weather-icon-23" transform="translate(-10.000000, -14.000000)" fill-rule="nonzero">
            <rect id="Rectangle-path" x="0" y="0" width="192" height="192"></rect>
            <g id="Group" transform="translate(10.000000, 14.000000)">
                <path d="M73,68.2 C63.9,44.3 67.6,18.9 81.2,0 C74.2,0.7 67.2,2.3 60.5,4.9 C19.6,20.4 1.2,65.5 16.7,106.3 C32.2,147.1 76,168.4 116.9,152.9 C137,145.2 152.2,130.2 160.6,112 C124.5,123.5 86.7,104.3 73,68.2 Z" id="Shape" fill="#BABABA"></path>
                <g transform="translate(0.000000, 88.000000)" id="Shape">
                    <path d="M35.2,71.4 C15.7,71.4 0,55.6 0,36.2 C0,16.8 15.8,1 35.2,1 C51.9,0.9 45.8,71.4 35.2,71.4 L35.2,71.4 Z" fill="#000000" opacity="0.02"></path>
                    <path d="M92.7,26.9 C107.3,26.9 119.3,38.8 119.3,53.5 C119.3,68.1 107.4,80 92.7,80 L39.7,80 C17.7,80 1.42108547e-14,62.2 1.42108547e-14,40.3 C1.42108547e-14,18.4 17.8,0.6 39.7,0.6 C58.6,0.6 74.3,13.8 78.4,31.4 C82.5,28.4 87.4,26.9 92.7,26.9 L92.7,26.9 Z" fill="#EDF2F5"></path>
                    <path d="M78.4,31.1 C79.1,34 79.5,37.1 79.5,40.2 C79.5,61.9 62.1,79.5 40.6,80 L92.7,80 C104.3,80 114.2,72.6 117.8,62.1 L78.4,31.1 Z" fill="#010202" opacity="0.02"></path>
                </g>
            </g>
        </g>
    </g>
</svg>