<svg xmlns="http://www.w3.org/2000/svg" viewBox="0 0 192 192"><path fill="#B8B8B8" d="M13 119.8c-2.9 0-5.2 2.4-5 5.3 0 1.6.8 3.1 2 4 0 0 3.5 2.8 8 5.6s9.8 6 15.9 6 10.4-3.7 13.5-6.2 5.6-4 7.2-4c1.6 0 3.8 1.5 7.2 4 3.2 2.5 7.4 6.2 13.5 6.2s10.4-3.7 13.5-6.2c3.2-2.5 5.6-4 7.2-4s3.8 1.5 7.2 4c3.2 2.5 7.4 6.2 13.5 6.2s10.4-3.7 13.5-6.2c3.2-2.5 5.6-4 7.2-4s3.8 1.5 7.2 4c3.2 2.5 7.4 6.2 13.5 6.2s11.4-3.2 15.9-6 8-5.6 8-5.6c2.3-1.7 2.7-5 .8-7.3-1.7-2.3-5-2.7-7.3-.8 0 0-3.1 2.4-6.9 4.8-3.8 2.4-9 4.4-10.5 4.4-1.6 0-3.8-1.5-7.2-4-3.2-2.5-7.4-6.2-13.5-6.2s-10.4 3.7-13.5 6.2c-3.2 2.5-5.6 4-7.2 4s-3.8-1.5-7.2-4c-3.2-2.5-7.4-6.2-13.5-6.2s-10.4 3.7-13.5 6.2c-3.2 2.5-5.6 4-7.2 4s-3.8-1.5-7.2-4c-3.2-2.5-7.4-6.2-13.5-6.2s-10.4 3.7-13.5 6.2c-3.2 2.5-5.6 4-7.2 4s-6.6-2-10.5-4.4c-3.8-2.4-6.9-4.8-6.9-4.8-1.1-.9-2.3-1.2-3.5-1.2zM13 85.6c-2.9 0-5.2 2.4-5 5.3 0 1.6.8 3.1 2 4 0 0 3.5 2.8 8 5.6s9.8 6 15.9 6 10.4-3.7 13.5-6.2 5.6-4 7.2-4c1.6 0 3.8 1.5 7.2 4 3.2 2.5 7.4 6.2 13.5 6.2s10.4-3.7 13.5-6.2c3.2-2.5 5.6-4 7.2-4s3.8 1.5 7.2 4c3.2 2.5 7.4 6.2 13.5 6.2s10.4-3.7 13.5-6.2c3.2-2.5 5.6-4 7.2-4s3.8 1.5 7.2 4c3.2 2.5 7.4 6.2 13.5 6.2s11.4-3.2 15.9-6 8-5.6 8-5.6c2.3-1.7 2.7-5 .8-7.3-1.7-2.3-5-2.7-7.3-.8 0 0-3.1 2.4-6.9 4.8s-9 4.4-10.5 4.4c-1.6 0-3.8-1.5-7.2-4-3.2-2.5-7.4-6.2-13.5-6.2S127 89.5 123.9 92c-3.2 2.5-5.6 4-7.2 4s-3.8-1.5-7.2-4c-3.2-2.5-7.4-6.2-13.5-6.2S85.7 89.5 82.5 92s-5.6 4-7.2 4-3.8-1.5-7.2-4c-3.2-2.5-7.4-6.2-13.5-6.2S44.2 89.5 41.1 92c-3.2 2.5-5.6 4-7.2 4s-6.6-2-10.5-4.4-6.9-4.8-6.9-4.8c-1.1-.9-2.3-1.3-3.5-1.2zM13 51.4c-2.9 0-5.2 2.4-5 5.3 0 1.6.8 3.1 2 4 0 0 3.5 2.8 8 5.6s9.8 6 15.9 6 10.4-3.7 13.5-6.2c3.2-2.5 5.6-4 7.2-4 1.6 0 3.8 1.5 7.2 4 3.2 2.5 7.4 6.2 13.5 6.2s10.4-3.7 13.5-6.2c3.2-2.5 5.6-4 7.2-4s3.8 1.5 7.2 4c3.2 2.5 7.4 6.2 13.5 6.2s10.4-3.7 13.5-6.2c3.2-2.5 5.6-4 7.2-4s3.8 1.5 7.2 4c3.2 2.5 7.4 6.2 13.5 6.2s11.4-3.2 15.9-6 8-5.6 8-5.6c2.3-1.7 2.7-5 .8-7.3-1.7-2.3-5-2.7-7.3-.8 0 0-3.1 2.4-6.9 4.8s-9 4.4-10.5 4.4c-1.6 0-3.8-1.5-7.2-4-3.2-2.5-7.4-6.2-13.5-6.2s-10.4 3.7-13.5 6.2c-3.2 2.5-5.6 4-7.2 4s-3.8-1.5-7.2-4c-3.2-2.5-7.4-6.2-13.5-6.2s-10.4 3.7-13.5 6.2c-3.2 2.5-5.6 4-7.2 4s-3.8-1.5-7.2-4c-3.2-2.5-7.4-6.2-13.5-6.2s-10.4 3.7-13.5 6.2c-3.2 2.5-5.6 4-7.2 4s-6.6-2-10.5-4.4-6.9-4.8-6.9-4.8c-1.1-.9-2.3-1.3-3.5-1.2z"/></svg>