<?xml version="1.0" encoding="utf-8"?>
<!-- Generator: Adobe Illustrator 19.2.1, SVG Export Plug-In . SVG Version: 6.00 Build 0)  -->
<svg version="1.1" id="Layer_1" xmlns="http://www.w3.org/2000/svg" xmlns:xlink="http://www.w3.org/1999/xlink" x="0px" y="0px"
	 viewBox="0 0 192 192" enable-background="new 0 0 192 192" xml:space="preserve">
<path fill="#BABABA" d="M129.8,65.3c-5.6-14.8-3.4-30.5,5-42.2c-4.3,0.4-8.6,1.4-12.8,3c-25.3,9.7-36.7,37.5-27.1,62.8
	s36.7,38.4,62,28.8c12.5-4.8,21.9-14.1,27-25.3C161.6,99.5,138.3,87.6,129.8,65.3L129.8,65.3z"/>
<path fill="#EDF2F5" d="M121.1,98.6c-5.9-25.3-28.5-44.4-55.8-44.4C33.6,54.2,8,79.9,8,111.6c0,31.8,25.7,57.3,57.3,57.3h76.4
	c21.1,0,38.2-17.2,38.2-38.2s-17.1-38.2-38.2-38.2C134.1,92.5,127,94.9,121.1,98.6L121.1,98.6z"/>
<path opacity="2.000000e-02" fill="#020304" enable-background="new    " d="M121.1,98.4c1,4.2,1.6,8.6,1.6,13.2
	c0,31.3-25,56.7-56.1,57.3h75.1c16.8,0,31-10.7,36.1-25.8C177.9,143.1,121.1,98.4,121.1,98.4z"/>
</svg>
