<?xml version="1.0" encoding="utf-8"?>
<!-- Generator: Adobe Illustrator 20.1.0, SVG Export Plug-In . SVG Version: 6.00 Build 0)  -->
<svg version="1.1" id="Layer_1" xmlns="http://www.w3.org/2000/svg" xmlns:xlink="http://www.w3.org/1999/xlink" x="0px" y="0px"
	 viewBox="0 0 192 192" enable-background="new 0 0 192 192" xml:space="preserve">
<g>
	<g>
		<polygon fill="#F8C62E" points="156.8,121.2 182,96 156.8,70.8 156.8,35.2 121.2,35.2 96,10 70.8,35.2 35.2,35.2 35.2,70.8 10,96 
			35.2,121.2 35.2,156.8 70.8,156.8 96,182 121.2,156.8 156.8,156.8 		"/>
		<ellipse transform="matrix(0.9843 -0.1763 0.1763 0.9843 -15.4216 18.4292)" fill="#F4DC32" cx="96" cy="96" rx="66" ry="66"/>
	</g>
	<g>
		<path opacity="2.000000e-02" enable-background="new    " d="M46.2,173.4c-19.5,0-35.2-15.8-35.2-35.2S26.8,103,46.2,103
			C62.9,102.9,56.8,173.4,46.2,173.4L46.2,173.4z"/>
		<path fill="#EDF2F5" d="M103.7,128.9c14.6,0,26.6,11.9,26.6,26.6c0,14.6-11.9,26.5-26.6,26.5h-53c-22,0-39.7-17.8-39.7-39.7
			s17.8-39.7,39.7-39.7c18.9,0,34.6,13.2,38.7,30.8C93.5,130.4,98.4,128.9,103.7,128.9L103.7,128.9z"/>
		<path opacity="2.000000e-02" fill="#010202" enable-background="new    " d="M89.4,133.1c0.7,2.9,1.1,6,1.1,9.1
			c0,21.7-17.4,39.3-38.9,39.8h52.1c11.6,0,21.5-7.4,25.1-17.9L89.4,133.1z"/>
	</g>
</g>
</svg>
