<?xml version="1.0" encoding="utf-8"?>
<!-- Generator: Adobe Illustrator 19.2.1, SVG Export Plug-In . SVG Version: 6.00 Build 0)  -->
<svg version="1.1" id="Layer_1" xmlns="http://www.w3.org/2000/svg" xmlns:xlink="http://www.w3.org/1999/xlink" x="0px" y="0px"
	 viewBox="0 0 192 192" enable-background="new 0 0 192 192" xml:space="preserve">
<path fill="#EEAF20" d="M143.3,105.8h21.8V87.2"/>
<path fill="#F6B31D" d="M178.4,75.1L165.3,62l-46,41.4l15.4,15.4"/>
<path fill="#F3BA24" d="M165.7,45.3h-18.6L103.4,84v21.8h18.5L165.7,67"/>
<path fill="#F8C82E" d="M125.8,45.3h-21.9v18.5"/>
<path fill="#F8C62E" d="M148.9,47.1l-14.6-14.6l-13.1,13.1L90.7,76.1l13.1,13.1"/>
<ellipse transform="matrix(0.9843 -0.1763 0.1763 0.9843 -11.2221 24.8982)" fill="#F4DC32" cx="134.5" cy="75.6" rx="33.8" ry="33.8"/>
<g opacity="1.000000e-02">
	<path d="M145.5,79.8c21.5,0,37.9,16.7,37.9,38.3c0,21.5-109.4-35.4-80.1-62.5c3.7-3.4,17.3,17.6,20.4,31
		C129.8,82.7,137.7,79.8,145.5,79.8z"/>
</g>
<g opacity="1.000000e-02">
	<path d="M145.8,79.1c21.5,0,37.9,16.7,37.9,38.3c0,21.5-109.4-35.4-80.1-62.5c3.7-3.4,17.3,17.6,20.4,31
		C130.1,81.9,138,79.1,145.8,79.1L145.8,79.1z"/>
</g>
<g opacity="1.000000e-02">
	<path d="M146.1,78.3c21.5,0,37.9,16.7,37.9,38.3c0,21.5-109.4-35.4-80.1-62.5c3.7-3.4,17.3,17.6,20.4,31
		C130.3,81.1,138.2,78.3,146.1,78.3z"/>
</g>
<g>
	<path fill="#EDF2F5" d="M144.5,81.5c21.5,0,39.1,17.4,39.1,39.1c0,21.5-17.4,38.9-39.1,38.9h-78C34.1,159.5,8,133.4,8,101
		s26.1-58.5,58.5-58.5c27.7,0,50.8,19.3,56.9,45.3C129.4,83.9,136.7,81.5,144.5,81.5z"/>
</g>
<path opacity="2.000000e-02" fill="#010202" enable-background="new    " d="M123.8,87.5c1,4.3,1.6,8.8,1.6,13.4
	c0,31.8-25.5,57.7-57.1,58.4h76.5c17.1,0,31.5-10.9,36.8-26.3C181.6,133,123.8,87.5,123.8,87.5z"/>
</svg>
