<?xml version="1.0" encoding="utf-8"?>
<!-- Generator: Adobe Illustrator 19.2.1, SVG Export Plug-In . SVG Version: 6.00 Build 0)  -->
<svg version="1.1" id="Layer_1" xmlns="http://www.w3.org/2000/svg" xmlns:xlink="http://www.w3.org/1999/xlink" x="0px" y="0px"
	 viewBox="0 0 192 192" enable-background="new 0 0 192 192" xml:space="preserve">
<path fill="#EDF2F5" d="M123.8,55.9c-6-25.9-29.2-45.4-57.1-45.4C34.2,10.5,8,36.8,8,69.2c0,32.5,26.3,58.7,58.7,58.7h78.2
	c21.6,0,39.1-17.6,39.1-39.1s-17.5-39.1-39.1-39.1C137.1,49.7,129.8,52.1,123.8,55.9z"/>
<path opacity="2.000000e-02" fill="#020304" enable-background="new    " d="M123.8,55.7c1,4.3,1.6,8.8,1.6,13.5
	c0,32-25.6,58-57.4,58.7h76.9c17.2,0,31.7-11,37-26.4L123.8,55.7z"/>
<g>
	<g>
		
			<rect x="49.1" y="146.8" transform="matrix(0.7071 -0.7071 0.7071 0.7071 -93.0793 86.6127)" fill="#EDF2F5" width="17.8" height="17.8"/>
		
			<rect x="83.8" y="160.1" transform="matrix(0.7071 -0.7071 0.7071 0.7071 -92.3226 115.0434)" fill="#EDF2F5" width="17.8" height="17.8"/>
		
			<rect x="120.1" y="148.8" transform="matrix(0.7071 -0.7071 0.7071 0.7071 -73.7068 137.3819)" fill="#EDF2F5" width="17.8" height="17.8"/>
		<polygon opacity="2.000000e-02" fill="#020304" enable-background="new    " points="70.5,155.7 57.9,168.2 57.9,143.1 		"/>
		<polygon opacity="2.000000e-02" fill="#020304" enable-background="new    " points="105.3,169 92.7,181.5 92.7,156.4 		"/>
		<polygon opacity="2.000000e-02" fill="#020304" enable-background="new    " points="141.5,157.7 129,170.2 129,145.1 		"/>
	</g>
</g>
</svg>
