<svg xmlns="http://www.w3.org/2000/svg" width="1280" height="805" viewBox="0 0 1280 805">
  <g fill="none">
    <polygon fill="#3F2E84" points="0 0 1280 0 1280 805 0 805"/>
    <g transform="translate(436 129)">
      <path fill="#FAFAFA" d="M6.91487189,0 L400.371083,0 C404.174262,0 407.285954,3.09693767 407.285954,6.9128073 L407.285954,539.89025 C407.285954,543.713033 404.188091,546.803058 400.371083,546.803058 L6.91487189,546.803058 C3.11169235,546.803058 0,543.70612 0,539.89025 L0,6.9128073 C0,3.09002487 3.09786261,0 6.91487189,0 Z M248.188582,0 L322.841538,75.4187277 C325.524509,78.135461 329.894708,82.5112679 332.619167,85.20035 L407.285954,159.029132 L407.285954,6.9128073 C407.285954,3.09693767 404.188091,0 400.371083,0 L248.188582,0 Z"/>
      <polyline fill="#000" points="266.902 159.448 407.286 159.448 407.286 276.435" opacity=".1"/>
      <path fill="#E0E0E0" fill-opacity=".22" d="M247.837836,0 L407.285954,159.448118 L270.014209,159.448118 C257.768693,159.448118 247.837836,149.515967 247.837836,137.268854 L247.837836,0 Z"/>
    </g>
    <path fill="#000" fill-opacity=".8" d="M651.951652,452.672949 C658.064142,462.586128 666.018139,469.86949 680.082902,469.86949 C691.899235,469.86949 699.446306,464.005476 699.446306,455.902009 C699.446306,446.194283 691.692324,442.752921 678.686255,437.102922 L671.556452,434.067331 C650.979171,425.362909 637.309262,414.456699 637.309262,391.40128 C637.309262,370.165845 653.60349,354 679.070764,354 C697.203048,354 710.236706,360.266363 719.630457,376.671904 L697.422029,390.831144 C692.535485,382.123297 687.260984,378.692207 679.072487,378.692207 C670.718463,378.692207 665.424995,383.955267 665.424995,390.831144 C665.424995,399.323263 670.72536,402.764626 682.960687,408.024261 L690.090489,411.054715 C714.319746,421.373668 728,431.891226 728,455.539038 C728,481.032518 707.833092,495 680.746741,495 C654.262156,495 637.152355,482.467276 628.781088,466.0429 L651.9551,452.671236 L651.951652,452.672949 Z M551.215394,455.12813 C555.695014,463.021007 559.767708,469.693142 569.56666,469.693142 C578.936272,469.693142 584.847024,466.054885 584.847024,451.900782 L584.847024,355.616242 L613.36106,355.616242 L613.36106,452.282585 C613.36106,481.602654 596.04952,494.948636 570.778812,494.948636 C547.949652,494.948636 534.724602,483.21376 528,469.081915 L551.215394,455.12813 Z"/>
  </g>
</svg>
