<svg width="540" height="338" viewBox="0 0 540 338" xmlns="http://www.w3.org/2000/svg" xmlns:xlink="http://www.w3.org/1999/xlink" style="background:#F4F4F4"><title>deliverate</title><defs><linearGradient x1="56.47%" y1="74.61%" x2="56.47%" y2="22.2%" id="a"><stop stop-color="#FF6154" stop-opacity=".88" offset="0%"/><stop stop-color="#FF6154" offset="100%"/></linearGradient><ellipse id="c" cx="104.81" cy="104.65" rx="104.81" ry="104.65"/><filter x="-3.3%" y="-2.4%" width="106.7%" height="106.7%" filterUnits="objectBoundingBox" id="b"><feOffset dy="2" in="SourceAlpha" result="shadowOffsetOuter1"/><feGaussianBlur stdDeviation="2" in="shadowOffsetOuter1" result="shadowBlurOuter1"/><feColorMatrix values="0 0 0 0 0 0 0 0 0 0 0 0 0 0 0 0 0 0 0.12 0" in="shadowBlurOuter1"/></filter><filter x="-5.8%" y="-4.8%" width="111.6%" height="111.6%" filterUnits="objectBoundingBox" id="d"><feOffset dy="2" in="SourceAlpha" result="shadowOffsetOuter1"/><feGaussianBlur stdDeviation="2" in="shadowOffsetOuter1" result="shadowBlurOuter1"/><feColorMatrix values="0 0 0 0 0 0 0 0 0 0 0 0 0 0 0 0 0 0 0.12 0" in="shadowBlurOuter1" result="shadowMatrixOuter1"/><feMerge><feMergeNode in="shadowMatrixOuter1"/><feMergeNode in="SourceGraphic"/></feMerge></filter><circle id="e" cx="69" cy="69" r="50"/><circle id="f" cx="47.5" cy="50" r="47.5"/><ellipse id="g" cx="43.17" cy="42.54" rx="43.17" ry="42.54"/><path d="M25.94 48.5c4.48-4.93 7.88-12.12 7.86-21.6C33.76 12.33 26.2.5 16.93.55 7.66.55.18 12.4.23 27c0 9.47 3.45 16.65 7.96 21.55 1.6 1.76 2.8 3.17 3.8 4.3 1.4 1.78 2.2 3.32 2.2 7.63-.4 10.47-.8 23.3-1.3 35.72-1.1 23.3-3.2 45-3.2 47 0 4.2 3.4 7.58 7.6 7.57 4.2 0 7.5-3.42 7.5-7.6v-.02c0-1.98-2.3-23.68-3.5-46.97-.6-12.4-1.1-25.25-1.5-35.7 0-4.2.7-5.78 2.1-7.5.9-1.16 2.2-2.63 3.9-4.48z" id="j"/><filter x="-20.8%" y="-3.3%" width="141.7%" height="109.3%" filterUnits="objectBoundingBox" id="i"><feOffset dy="2" in="SourceAlpha" result="shadowOffsetOuter1"/><feGaussianBlur stdDeviation="2" in="shadowOffsetOuter1" result="shadowBlurOuter1"/><feColorMatrix values="0 0 0 0 0 0 0 0 0 0 0 0 0 0 0 0 0 0 0.12 0" in="shadowBlurOuter1"/></filter><path d="M62.54 52.2l.76-.88c2.12-2.35 3.52-3.9 3.52-15.63v-.1c-.4-5.2-1.34-24.9-1.73-33.1l-.1-.6C64.9 1 64.4.5 63.5.5h-.24c-.7 0-1.3.6-1.3 1.34l-.56 24.7c0 .13-.15.25-.34.25h-.6c-.2 0-.3-.1-.3-.3l-.6-24.7c0-.7-.6-1.3-1.3-1.3H58c-.73 0-1.33.6-1.33 1.3l-.5 24.7c0 .1-.17.2-.34.2h-.6c-.2 0-.33-.1-.33-.3l-.6-24.7c0-.7-.6-1.3-1.34-1.3h-.25c-.7 0-1.3.6-1.3 1.3l-.6 24.7c0 .1-.1.2-.3.2h-.6c-.1 0-.3-.1-.3-.2L49 1.8c0-.7-.6-1.3-1.35-1.3h-.22c-.83 0-1.4.53-1.42 1.4v.74c-.4 10.18-1.3 28-1.7 32.97v.1c0 11.7 1.4 13.3 3.5 15.6l.8.9.6.7c2 2.3 3 3.5 3 8.4l-.6 14.6c-.2 7.1-.5 14.4-.8 21.6-.7 16.7-2.1 32.6-2.8 41.2-.3 3.8-.5 6-.5 6.6 0 4.6 3.7 8.3 8.3 8.3s8.3-3.7 8.3-8.2c0-.6-.2-2.9-.5-6.6-.74-8.5-2.1-24.4-2.9-41.1-.34-7.2-.6-14.5-.9-21.6L59 61.3c.04-4.97 1.03-6.1 3-8.4l.6-.7z" id="l"/><filter x="-30.9%" y="-3.3%" width="161.9%" height="109.1%" filterUnits="objectBoundingBox" id="k"><feOffset dy="2" in="SourceAlpha" result="shadowOffsetOuter1"/><feGaussianBlur stdDeviation="2" in="shadowOffsetOuter1" result="shadowBlurOuter1"/><feColorMatrix values="0 0 0 0 0 0 0 0 0 0 0 0 0 0 0 0 0 0 0.12 0" in="shadowBlurOuter1"/></filter></defs><g fill="none" fill-rule="evenodd"><g opacity=".86" fill-opacity=".5" fill="#DB001B"><path d="M-290 240.1l14.14-14.13 482.7 482.68-14.15 14.15zm56.57-56.56l14.14-14.14 482.7 482.7-14.1 14.13zm56.57-56.57l14.14-14.14 482.68 482.7-14.14 14.13zm56.56-56.57l14.15-14.14 482.68 482.7-14.14 14.13zm56.57-56.56L-49.58-.3 433.1 482.38l-14.14 14.14zm56.57-56.57L6.98-56.87l482.7 482.68-14.15 14.2zM49.4-99.3l14.15-14.14 482.7 482.68-14.15 14.15zm56.58-56.57L120.12-170l482.7 482.68-14.15 14.14zm56.57-56.57l14.14-14.14 482.6 482.7-14.2 14.13zM219.12-269l14.14-14.15 482.68 482.7-14.14 14.13zm56.58-56.57l14.13-14.15 482.68 482.7-14.1 14.13zm-537.42 537.4l14.15-14.14L235.1 680.3l-14.13 14.14zm56.57-56.57l14.14-14.14L291.6 623.8l-14.14 14.14zm56.57-56.56l14.14-14.15 482.7 482.68-14.15 14.15zM-92 42.12l14.13-14.14 482.7 482.7-14.15 14.13zm56.56-56.57L-21.3-28.6l482.7 482.7-14.16 14.14zm56.57-56.57l14.14-14.14 482.68 482.7-14.14 14.13zm56.57-56.56l14.14-14.15 482.68 482.7-14.14 14.13zm56.56-56.57l14.15-14.14 482.7 482.7-14.1 14.2zm56.57-56.57l14.14-14.14 482.7 482.68-14.15 14.14zm56.57-56.58l14.14-14.13 482.7 482.68-14.15 14.15zm56.57-56.56L318.1-368l482.7 482.7-14.15 14.13z"/><path d="M219.95-387l14.15 14.14-482.7 482.7-14.13-14.15zm56.57 56.57l14.14 14.14-482.68 482.7-14.14-14.1zm56.58 56.57l14.13 14.14-482.68 482.68-14.14-14.14zm56.56 56.56l14.14 14.15-482.68 482.68-14.15-14.14zm56.57 56.57l14.14 14.15L-22.3 336.1l-14.16-14.14zm56.57 56.57l14.14 14.14-482.7 482.7-14.13-14.15zm56.57 56.56l14.14 14.15-482.6 482.7-14.2-14.15zm56.56 56.58l14.15 14.14-482.7 482.7-14.13-14.15zm56.57 56.57l14.14 14.14-482.68 482.6-14.14-14.2zm56.57 56.57l14.14 14.14-482.6 482.68-14.1-14.14zm56.57 56.58l14.14 14.13L317.1 675.5l-14.15-14.13zm-537.4-537.42l14.14 14.15L-220.3 138.1l-14.15-14.13zm56.56 56.57L318.96-288l-482.7 482.68-14.13-14.14zm56.58 56.57l14.14 14.14-482.7 482.7-14.13-14.15zM417.94-189l14.15 14.13-482.7 482.7-14.2-14.15zm56.56 56.56l14.15 14.14L5.97 364.4l-14.14-14.16zm56.58 56.57l14.14 14.14L62.54 420.95 48.4 406.8zm56.57 56.57L601.8-5.16 119.1 477.52l-14.14-14.14zm56.57 56.56l14.14 14.15-482.7 482.7-14.13-14.1zm56.58 56.57l14.13 14.14-482.7 482.7-14.13-14.15zm56.56 56.57l14.14 14.14-482.7 482.7-14.13-14.15zm56.56 56.57l14.15 14.14-482.7 482.7-14.13-14.1z"/></g><text transform="rotate(-15 622.366 390.692)" font-family="Brother-1816-ExtraBold, Brother 1816" font-size="72" font-weight="600" letter-spacing="-2" fill="#FFF"><tspan x="360.37" y="421.19">Deliverate.co.u</tspan> <tspan x="840.63" y="421.19">k</tspan></text><path fill="url(#a)" transform="rotate(-45 -47.444 522.556)" d="M-96.8 273.12L97.05 477.57V772h-289l52.03-412.22"/><g transform="translate(156 89)"><ellipse fill-opacity=".1" fill="#000" cx="108.74" cy="114.94" rx="106.05" ry="105.89"/><use fill="#000" filter="url(#b)" xlink:href="#c"/><use fill="#FFF" xlink:href="#c"/><ellipse fill-opacity=".02" fill="#000" cx="105.26" cy="107.66" rx="85.25" ry="85.12"/></g><g filter="url(#d)" transform="translate(171 102)"><path d="M98.08 150.33c-1.47-.76-3.85-.77-5.33 0l-8.85 4.57c-1.48.76-3.47.3-4.48-1.02l-6-7.96c-.98-1.32-3.13-2.36-4.8-2.3l-9.95.27c-1.66 0-3.26-1.3-3.6-2.9l-1.93-9.8c-.33-1.7-1.8-3.5-3.33-4.2l-9-4c-1.5-.7-2.4-2.5-2-4.2l2.5-9.7c.4-1.6-.1-4-1.2-5.2l-6.5-7.7c-1-1.3-1-3.3 0-4.6l6.5-7.6c1.1-1.3 1.6-3.6 1.2-5.2l-2.4-9.7c-.4-1.6.5-3.5 2-4.18l9.1-4c1.6-.67 3-2.5 3.4-4.16l2-9.78c.35-1.6 1.95-2.9 3.6-2.8l9.97.3c1.66 0 3.8-1 4.8-2.36l6-7.95c1-1.35 3-1.8 4.48-1.05l8.86 4.6c1.5.8 3.87.8 5.35 0l8.88-4.55c1.5-.8 3.5-.3 4.5 1l6 7.9c1 1.3 3.2 2.3 4.8 2.3l10-.3c1.7-.07 3.3 1.2 3.6 2.84l1.9 9.75c.3 1.6 1.8 3.5 3.3 4.15l9.1 4.1c1.5.63 2.4 2.5 2 4.1l-2.7 9.8c-.4 1.6.2 3.93 1.2 5.2l6.5 7.6c1.07 1.3 1.07 3.33 0 4.6l-6.43 7.6c-1 1.3-1.6 3.6-1.2 5.22l2.5 9.6c.5 1.6-.4 3.44-2 4.1l-9 4.08c-1.5.7-3 2.55-3.3 4.2l-2 9.76c-.3 1.62-1.9 2.9-3.6 2.9l-9.9-.3c-1.66-.08-3.8 1-4.8 2.3l-6 7.94c-1 1.34-3 1.8-4.48 1.03l-8.86-4.6z" fill="#8ABD06"/><path d="M98.75 144.5c.93-1.85 1.46-3.94 1.46-6.16 0-7.57-6.1-13.7-13.7-13.7-7.5 0-13.7 6.13-13.7 13.7 0 2.22.6 4.3 1.5 6.16H48.5c-2.2 0-4-1.8-4-4v-92c0-2.2 1.8-4 4-4h80.02c-.64 1.6-1 3.34-1 5.16 0 7.57 6.13 13.7 13.7 13.7 1.13 0 2.23-.13 3.28-.4v65.7c-2.84-1.37-6.03-2.13-9.4-2.13-10.7 0-19.6 7.76-21.37 17.97H98.75zm-33-50.95c7.57 0 13.7-6.13 13.7-13.7 0-7.57-6.13-13.7-13.7-13.7-7.57 0-13.7 6.13-13.7 13.7 0 7.57 6.13 13.7 13.7 13.7zm51.44 14.1c8.3 0 15-6.75 15-15.1 0-8.32-6.8-15.08-15.1-15.08-8.4 0-15.1 6.76-15.1 15.1 0 8.33 6.7 15.1 15.1 15.1z" fill="#FEDD40"/><g transform="rotate(30 34.166 129.334)"><g transform="rotate(-30 69 69)"><use fill="#B54E3D" xlink:href="#e"/><circle stroke="#732521" stroke-width="2" cx="69" cy="69" r="51"/></g><rect fill="#732521" x="66.5" y="24" width="5" height="92.5" rx="2.5"/><rect fill="#732521" x="79.83" y="26.5" width="5" height="87.5" rx="2.5"/><rect fill="#732521" x="53.17" y="26.5" width="5" height="87.5" rx="2.5"/><rect fill="#732521" x="93.17" y="39" width="5" height="60" rx="2.5"/><rect fill="#732521" x="39.83" y="39" width="5" height="60" rx="2.5"/><rect fill="#732521" x="106.5" y="46.5" width="5" height="47.5" rx="2.5"/><rect fill="#732521" x="26.5" y="46.5" width="5" height="47.5" rx="2.5"/></g><g transform="translate(47 42)"><use fill="#FFBD55" xlink:href="#f"/><circle stroke-opacity=".3" stroke="#D97925" stroke-width="1.5" cx="47.5" cy="50" r="46.75"/></g><g fill="#EFF0E8"><g transform="translate(54.5 54.5)"><rect y="30" width="2.5" height="5" rx="1.25"/><rect x="17.5" y="7.5" width="2.5" height="5" rx="1.25"/><rect x="52.5" y="35" width="2.5" height="5" rx="1.25"/><rect x="27.5" y="27.5" width="2.5" height="5" rx="1.25"/><rect x="52.5" y="15" width="2.5" height="5" rx="1.25"/><rect x="42.5" width="2.5" height="5" rx="1.25"/><rect x="72.5" y="37.5" width="2.5" height="5" rx="1.25"/><rect x="55" y="60" width="2.5" height="5" rx="1.25"/><rect x="22.5" y="65" width="2.5" height="5" rx="1.25"/></g><g transform="rotate(18 -93.158 270.01)"><rect y="30" width="2.5" height="5" rx="1.25"/><rect x="17.5" y="7.5" width="2.5" height="5" rx="1.25"/><rect x="32.5" y="45" width="2.5" height="5" rx="1.25"/><rect x="60" y="42.5" width="2.5" height="5" rx="1.25"/><rect x="27.5" y="27.5" width="2.5" height="5" rx="1.25"/><rect x="50" y="20" width="2.5" height="5" rx="1.25"/><rect x="42.5" width="2.5" height="5" rx="1.25"/><rect x="72.5" y="37.5" width="2.5" height="5" rx="1.25"/><rect x="42.5" y="65" width="2.5" height="5" rx="1.25"/><rect x="12.5" y="55" width="2.5" height="5" rx="1.25"/></g></g></g><g transform="translate(28 29)"><path d="M87.9 103.62l18.44-18.42 18.78 18.8c3.9 3.9 3.9 10.22 0 14.12l-4.28 4.28c-3.9 3.9-10.24 3.9-14.14 0l-18.8-18.78z" fill-opacity=".03" fill="#000"/><ellipse fill-opacity=".1" fill="#000" cx="67.87" cy="66.9" rx="56.9" ry="56.07"/><ellipse fill="#FFF" cx="57.45" cy="56.6" rx="57.45" ry="56.6"/><g transform="translate(15.082 13.542)"><mask id="h" fill="#fff"><use xlink:href="#g"/></mask><use fill="#80573F" xlink:href="#g"/><ellipse fill-opacity=".12" fill="#000" mask="url(#h)" cx="45.8" cy="50.45" rx="43.17" ry="42.54"/></g><path d="M82.43 103.62l18.42-18.42 18.8 18.8c3.9 3.9 3.9 10.22 0 14.12l-4.3 4.28c-3.9 3.9-10.24 3.9-14.13 0l-18.8-18.78z" fill="#FFF"/></g><g transform="rotate(-25 329.67 -809.984)"><rect fill="#555353" y="12.39" width="71.96" height="162.36" rx="2"/><g transform="translate(2.48)"><use fill="#000" filter="url(#i)" xlink:href="#j"/><use fill="#ECEFF0" xlink:href="#j"/></g><g transform="translate(2.48)"><use fill="#000" filter="url(#k)" xlink:href="#l"/><use fill="#ECEFF0" xlink:href="#l"/></g></g></g></svg>