<svg width="540" height="338" viewBox="0 0 540 338" xmlns="http://www.w3.org/2000/svg" xmlns:xlink="http://www.w3.org/1999/xlink" style="background:#121212">
    <title>working-out</title>
    <defs>
        <path d="M.64 1.16H15.4l6.4 15.55c1.66 3.9 2.96 7.5 3.97 10.5.57-.9 2-4.6 2.95-6.7l2.52-5.5 6.34-13.6h.57c4.1 8.8 9.36 19.3 11.74 25.9C51 25.1 58.1 7 60.4 1.3h14.7L50.68 53.8h-.65L40.3 33.1l-2.44-5.32c-.8 1.73-1.58 3.6-2.44 5.33L25.7 53.7h-.65L.65 1.16z" id="b" />
        <filter x="-5.4%" y="-3.8%" width="110.7%" height="115.2%" filterUnits="objectBoundingBox" id="a">
            <feOffset dy="2" in="SourceAlpha" result="shadowOffsetOuter1" />
            <feGaussianBlur stdDeviation="1" in="shadowOffsetOuter1" result="shadowBlurOuter1" />
            <feColorMatrix values="0 0 0 0 0 0 0 0 0 0 0 0 0 0 0 0 0 0 0.5 0" in="shadowBlurOuter1" />
        </filter>
        <path d="M82.63 16c11.3 0 19.5 8.06 19.5 19s-8.2 19-19.5 19c-11.37 0-19.5-8.06-19.5-19s8.13-19 19.5-19zm0 27.35c4.1 0 7.5-3.24 7.5-8.35 0-5.1-3.4-8.35-7.5-8.35-4.17 0-7.5 3.24-7.5 8.35 0 5.1 3.33 8.35 7.5 8.35z" id="d" />
        <filter x="-10.3%" y="-5.3%" width="120.5%" height="121%" filterUnits="objectBoundingBox" id="c">
            <feOffset dy="2" in="SourceAlpha" result="shadowOffsetOuter1" />
            <feGaussianBlur stdDeviation="1" in="shadowOffsetOuter1" result="shadowBlurOuter1" />
            <feColorMatrix values="0 0 0 0 0 0 0 0 0 0 0 0 0 0 0 0 0 0 0.5 0" in="shadowBlurOuter1" />
        </filter>
        <path d="M100.98 53V17h11.66c0 .94.14 1.87.22 2.74.07.93.07 1.65.2 2.23 2.17-3.24 6-5.98 10.38-5.98 1.15 0 2.23.1 2.3.1v12.5c-.07 0-1-.5-2.6-.5-4.67 0-9.35 3.3-9.35 9.7V53h-12.9z" id="f" />
        <filter x="-16.1%" y="-5.4%" width="132.3%" height="121.6%" filterUnits="objectBoundingBox" id="e">
            <feOffset dy="2" in="SourceAlpha" result="shadowOffsetOuter1" />
            <feGaussianBlur stdDeviation="1" in="shadowOffsetOuter1" result="shadowBlurOuter1" />
            <feColorMatrix values="0 0 0 0 0 0 0 0 0 0 0 0 0 0 0 0 0 0 0.5 0" in="shadowBlurOuter1" />
        </filter>
        <path id="h" d="M161.37 17l-11.74 15.62L161.93 53h-14.4l-7.76-14.1-3.24 4.1v10h-12.6V1.16h12.9v29.1L146.6 17z" />
        <filter x="-10.5%" y="-3.9%" width="121%" height="115.4%" filterUnits="objectBoundingBox" id="g">
            <feOffset dy="2" in="SourceAlpha" result="shadowOffsetOuter1" />
            <feGaussianBlur stdDeviation="1" in="shadowOffsetOuter1" result="shadowBlurOuter1" />
            <feColorMatrix values="0 0 0 0 0 0 0 0 0 0 0 0 0 0 0 0 0 0 0.5 0" in="shadowBlurOuter1" />
        </filter>
        <path id="j" d="M159.7 17h12.88v36H159.7z" />
        <filter x="-31%" y="-5.6%" width="162.1%" height="122.2%" filterUnits="objectBoundingBox" id="i">
            <feOffset dy="2" in="SourceAlpha" result="shadowOffsetOuter1" />
            <feGaussianBlur stdDeviation="1" in="shadowOffsetOuter1" result="shadowBlurOuter1" />
            <feColorMatrix values="0 0 0 0 0 0 0 0 0 0 0 0 0 0 0 0 0 0 0.5 0" in="shadowBlurOuter1" />
        </filter>
        <path d="M159.26 6.7c0-4.1 2.67-6.62 6.92-6.62 4.17 0 6.84 2.52 6.84 6.62s-2.67 6.7-6.84 6.7c-4.25 0-6.92-2.6-6.92-6.7z" id="l" />
        <filter x="-29.1%" y="-15%" width="158.2%" height="160.1%" filterUnits="objectBoundingBox" id="k">
            <feOffset dy="2" in="SourceAlpha" result="shadowOffsetOuter1" />
            <feGaussianBlur stdDeviation="1" in="shadowOffsetOuter1" result="shadowBlurOuter1" />
            <feColorMatrix values="0 0 0 0 0 0 0 0 0 0 0 0 0 0 0 0 0 0 0.5 0" in="shadowBlurOuter1" />
        </filter>
        <path d="M174.08 17h11.66l.36 3.67c.15 1.08-.07 1.87-.28 2.3h.14c1.58-3.3 6.4-6.98 11.74-6.98 7.7 0 12.6 4.7 12.6 14.5V53h-12.82V32.48c0-2.8-1.15-4.97-3.9-4.97-4.02 0-6.6 3.1-6.6 7.5v18h-12.9V17z" id="n" />
        <filter x="-11%" y="-5.4%" width="122.1%" height="121.6%" filterUnits="objectBoundingBox" id="m">
            <feOffset dy="2" in="SourceAlpha" result="shadowOffsetOuter1" />
            <feGaussianBlur stdDeviation="1" in="shadowOffsetOuter1" result="shadowBlurOuter1" />
            <feColorMatrix values="0 0 0 0 0 0 0 0 0 0 0 0 0 0 0 0 0 0 0.5 0" in="shadowBlurOuter1" />
        </filter>
        <path d="M223.38 44.22c0 1.22 2.74 1.72 7.13 2.37 10 1.5 14.4 4.1 14.4 10.7 0 7.8-8 12.3-19.7 12.3-10 0-17.7-3.2-17.7-9.4 0-4 3.7-7 8.7-8.2-2.6-.5-4.9-2.2-4.9-5.1 0-2.3 2-4.8 6-6.1-4.9-2-8.2-6.2-8.2-11.7 0-8.2 7.2-13.3 16.1-13.3 2.3 0 4.5.3 6.4 1H245v9h-3.74c-.8-.1-1-.2-1.37-.2.5 1 .8 2.2.8 3.4 0 6.9-5.1 11.5-12.1 12.7-2.9.5-5.2 1.2-5.2 2.2zm1.44-9.87c2.88 0 4.6-2 4.6-4.75 0-2.74-1.72-4.82-4.6-4.82-2.73 0-4.53 2.08-4.53 4.82s1.8 4.75 4.5 4.75zm.65 27.5c3.6 0 6.7-1.36 6.7-3.6 0-2.3-2.45-3.52-7.06-3.52-3.1 0-5.5 1.58-5.5 3.67 0 2.3 2.6 3.46 5.9 3.46z" id="p" />
        <filter x="-10.7%" y="-3.7%" width="121.4%" height="114.9%" filterUnits="objectBoundingBox" id="o">
            <feOffset dy="2" in="SourceAlpha" result="shadowOffsetOuter1" />
            <feGaussianBlur stdDeviation="1" in="shadowOffsetOuter1" result="shadowBlurOuter1" />
            <feColorMatrix values="0 0 0 0 0 0 0 0 0 0 0 0 0 0 0 0 0 0 0.5 0" in="shadowBlurOuter1" />
        </filter>
        <path id="r" d="M254.3 37.66v-9.93h24.12v9.93z" />
        <filter x="-16.6%" y="-20.1%" width="133.2%" height="180.5%" filterUnits="objectBoundingBox" id="q">
            <feOffset dy="2" in="SourceAlpha" result="shadowOffsetOuter1" />
            <feGaussianBlur stdDeviation="1" in="shadowOffsetOuter1" result="shadowBlurOuter1" />
            <feColorMatrix values="0 0 0 0 0 0 0 0 0 0 0 0 0 0 0 0 0 0 0.5 0" in="shadowBlurOuter1" />
        </filter>
        <path d="M307.33 16c11.3 0 19.5 8.06 19.5 19s-8.2 19-19.5 19c-11.38 0-19.5-8.06-19.5-19s8.12-19 19.5-19zm0 27.35c4.1 0 7.5-3.24 7.5-8.35 0-5.1-3.4-8.35-7.5-8.35-4.18 0-7.5 3.24-7.5 8.35 0 5.1 3.32 8.35 7.5 8.35z" id="t" />
        <filter x="-10.3%" y="-5.3%" width="120.5%" height="121%" filterUnits="objectBoundingBox" id="s">
            <feOffset dy="2" in="SourceAlpha" result="shadowOffsetOuter1" />
            <feGaussianBlur stdDeviation="1" in="shadowOffsetOuter1" result="shadowBlurOuter1" />
            <feColorMatrix values="0 0 0 0 0 0 0 0 0 0 0 0 0 0 0 0 0 0 0.5 0" in="shadowBlurOuter1" />
        </filter>
        <path d="M361.38 53h-11.66l-.36-3.67c-.07-1.08.14-1.87.3-2.3h-.16c-1.58 3.3-6.33 6.98-11.66 6.98-7.7 0-12.6-4.7-12.6-14.5V17h12.9v20.52c0 2.88 1.07 4.97 3.88 4.97 3.96 0 6.48-3.1 6.48-7.5V17h12.88v36z" id="v" />
        <filter x="-11.1%" y="-5.4%" width="122.1%" height="121.6%" filterUnits="objectBoundingBox" id="u">
            <feOffset dy="2" in="SourceAlpha" result="shadowOffsetOuter1" />
            <feGaussianBlur stdDeviation="1" in="shadowOffsetOuter1" result="shadowBlurOuter1" />
            <feColorMatrix values="0 0 0 0 0 0 0 0 0 0 0 0 0 0 0 0 0 0 0.5 0" in="shadowBlurOuter1" />
        </filter>
        <path d="M361.56 17h4.68V6.2h12.46V17h8.92v9.94h-8.92v12.3c0 3.25 2.16 4.26 4.32 4.26 2.23 0 4.32-.8 5.76-1.44v10.36c-1.66.8-5.12 1.6-9.65 1.6-6.05 0-11.6-2.68-12.82-9.88-.1-1.15-.2-2.44-.2-3.8v-13.4h-4.4V17z" id="x" />
        <filter x="-14.7%" y="-4.2%" width="129.4%" height="116.7%" filterUnits="objectBoundingBox" id="w">
            <feOffset dy="2" in="SourceAlpha" result="shadowOffsetOuter1" />
            <feGaussianBlur stdDeviation="1" in="shadowOffsetOuter1" result="shadowBlurOuter1" />
            <feColorMatrix values="0 0 0 0 0 0 0 0 0 0 0 0 0 0 0 0 0 0 0.5 0" in="shadowBlurOuter1" />
        </filter>
    </defs>
    <g fill="none" fill-rule="evenodd">
        <text font-family="Brother-1816-ExtraBold, Brother 1816" font-size="15" font-weight="600" fill="#2D2926">
            <tspan x="-723" y="320">WORKING-OUT.DESIGN</tspan>
        </text>
        <g transform="translate(76 109)">
            <use fill="#000" filter="url(#a)" xlink:href="#b" />
            <use fill="#FFF" xlink:href="#b" />
        </g>
        <g transform="translate(76 109)">
            <use fill="#000" filter="url(#c)" xlink:href="#d" />
            <use fill="#FFF" xlink:href="#d" />
        </g>
        <g transform="translate(76 109)">
            <use fill="#000" filter="url(#e)" xlink:href="#f" />
            <use fill="#FFF" xlink:href="#f" />
        </g>
        <g transform="translate(76 109)">
            <use fill="#000" filter="url(#g)" xlink:href="#h" />
            <use fill="#FFF" xlink:href="#h" />
        </g>
        <g transform="translate(76 109)">
            <use fill="#000" filter="url(#i)" xlink:href="#j" />
            <use fill="#FFF" xlink:href="#j" />
        </g>
        <g transform="translate(76 109)">
            <use fill="#000" filter="url(#k)" xlink:href="#l" />
            <use fill="#FFF" xlink:href="#l" />
        </g>
        <g transform="translate(76 109)">
            <use fill="#000" filter="url(#m)" xlink:href="#n" />
            <use fill="#FFF" xlink:href="#n" />
        </g>
        <g transform="translate(76 109)">
            <use fill="#000" filter="url(#o)" xlink:href="#p" />
            <use fill="#FFF" xlink:href="#p" />
        </g>
        <g transform="translate(76 109)">
            <use fill="#000" filter="url(#q)" xlink:href="#r" />
            <use fill="#FFF" xlink:href="#r" />
        </g>
        <g transform="translate(76 109)">
            <use fill="#000" filter="url(#s)" xlink:href="#t" />
            <use fill="#FFF" xlink:href="#t" />
        </g>
        <g transform="translate(76 109)">
            <use fill="#000" filter="url(#u)" xlink:href="#v" />
            <use fill="#FFF" xlink:href="#v" />
        </g>
        <g transform="translate(76 109)">
            <use fill="#000" filter="url(#w)" xlink:href="#x" />
            <use fill="#FFF" xlink:href="#x" />
        </g>
        <path d="M125.15 201.53h12.27v3.06h-8.73v5.1h7.9v3h-8v8.3H125v-19.5zm19.1 7.77c.9-2.1 2.2-3.15 3.97-3.15.34 0 .77.07 1.3.2l-.07 3.55c-.56-.12-1.1-.18-1.65-.18-2.36 0-3.54 1.63-3.54 4.9V221h-3.54v-14.6h3.54v2.9zm19.4 1.08c.26.84.4 1.6.4 2.3 0 .7-.05 1.34-.13 1.9h-9.42c.04 1.18.33 2.14.87 2.88.54.74 1.36 1.1 2.46 1.1 1.46 0 2.33-.63 2.6-1.9H164c-.22 1.45-.9 2.6-2 3.44-1.13.88-2.52 1.32-4.16 1.32-1.92 0-3.53-.7-4.83-2.1-1.3-1.46-2-3.33-2-5.6 0-2.35.7-4.23 2-5.65 1.3-1.36 2.9-2.04 4.9-2.04 2 0 3.6.7 4.7 2.13.5.64.9 1.38 1.2 2.22zm-5.8-1.53c-1 0-1.77.32-2.33.98-.56.65-.9 1.48-1 2.5h6.22c0-1.58-.5-2.64-1.5-3.18-.38-.2-.84-.3-1.38-.3zm20.88 1.53c.25.84.38 1.6.38 2.3 0 .7 0 1.34-.1 1.9h-9.4c.1 1.18.4 2.14.9 2.88.6.74 1.4 1.1 2.5 1.1 1.5 0 2.4-.63 2.6-1.9h3.6c-.2 1.45-.9 2.6-2 3.44-1.1.88-2.5 1.32-4.2 1.32-1.9 0-3.5-.7-4.8-2.1-1.3-1.46-2-3.33-2-5.6 0-2.35.7-4.23 2-5.65 1.3-1.36 2.9-2.04 4.9-2.04 2.1 0 3.6.7 4.7 2.13.5.64.9 1.38 1.2 2.22zm-5.8-1.53c-1 0-1.78.32-2.34.98-.6.65-.9 1.48-1 2.5h6.2c0-1.58-.5-2.64-1.5-3.18-.4-.2-.9-.3-1.4-.3zm21.88-2.82c1 0 1.8.15 2.5.47.8.3 1.4.7 1.9 1.2 1 .97 1.6 2.18 1.8 3.64l-3.5.1c-.1-.65-.4-1.18-.9-1.6-.4-.42-.9-.63-1.4-.63s-1 .1-1.4.3c-.4.2-.7.5-1 .8-.6.9-1 2-1 3.5s.3 2.6 1 3.4c.6.8 1.4 1.2 2.3 1.2 1 0 1.6-.2 2-.6.5-.4.7-1 .7-1.7h3.5c0 1.6-.5 3-1.6 4-1.1 1.1-2.6 1.6-4.5 1.6s-3.5-.7-4.8-2.1c-1.3-1.5-2-3.3-2-5.6s.7-4.2 2.1-5.7c1.3-1.3 2.9-2 4.9-2zm15.3 0c1 0 1.9.15 2.8.47.9.3 1.6.78 2.2 1.42 1.4 1.4 2.1 3.34 2.1 5.82 0 2.44-.7 4.36-2 5.76-1.2 1.28-2.9 1.92-5 1.92s-3.7-.64-5-1.92c-1.4-1.38-2-3.3-2-5.76 0-2.5.7-4.44 2.1-5.82 1.3-1.26 3-1.9 5.1-1.9zm2.6 4.22c-.6-.78-1.4-1.16-2.5-1.16s-1.9.3-2.6 1.1c-.7.7-1 1.9-1 3.4s.3 2.7.9 3.4c.6.8 1.5 1.1 2.5 1.1s2-.4 2.6-1.2c.7-.8 1.1-1.9 1.1-3.5 0-1.5-.3-2.7-.9-3.5zm6.4.16h8.5v3.1h-8.4v-3.1zm13.1-3.9l3 10.4 2.8-9.6h3.2l2.8 9.7 3-10.4h3.6l-4.8 14.6h-3.5l-2.7-8.7-2.6 8.8h-3.5l-4.8-14.6h3.8zm26.4-.4c1 0 1.9.2 2.8.5.9.3 1.6.8 2.2 1.5 1.4 1.4 2.1 3.4 2.1 5.8 0 2.5-.7 4.4-2.1 5.8-1.2 1.3-2.9 2-4.9 2-2.1 0-3.8-.6-5-1.9-1.4-1.3-2-3.3-2-5.7 0-2.5.7-4.4 2.1-5.8 1.3-1.2 2.9-1.9 5-1.9zm2.6 4.3c-.6-.8-1.4-1.1-2.5-1.1s-1.9.4-2.6 1.2c-.6.8-1 1.9-1 3.5s.3 2.7.9 3.5c.6.8 1.5 1.1 2.5 1.1s2-.4 2.6-1.1c.7-.8 1.1-1.9 1.1-3.4s-.3-2.6-.9-3.4zm11.4-.9c.9-2.1 2.2-3.1 4-3.1.4 0 .8.1 1.3.2v3.6c-.5-.1-1.1-.1-1.6-.1-2.3 0-3.5 1.7-3.5 4.9v6.3H269v-14.6h3.54v2.9zm13.3 4.6l-1.6 1.4v5.7h-3.5v-20.6h3.6v11.2l5.8-5.1h4.8l-6.4 5.4 6.7 9.1H291l-5-7.1zm11.6-7.5h3.5V221h-3.5v-14.6zm-.4-4.7c0-.6.2-1.1.6-1.5.4-.3 1-.5 1.7-.5s1.2.2 1.6.6c.4.4.6.9.6 1.5 0 .7-.2 1.2-.6 1.6-.4.4-.9.6-1.6.6-.7 0-1.2-.1-1.6-.5-.4-.3-.6-.8-.6-1.5zm12.6 7.3c1-1.9 2.5-2.9 4.7-2.9 1.8 0 3.2.6 4.1 1.8.9 1.2 1.4 2.8 1.4 4.7v8.5H316v-8.5c0-1-.27-1.9-.8-2.4-.53-.6-1.26-.8-2.2-.8-.94 0-1.74.5-2.4 1.3-.7.9-1.04 2.1-1.1 3.8v6.7h-3.54v-14.6h3.1l.38 2.5zm15.7 6.1c-1.2-1-1.7-2.3-1.7-3.8 0-1.6.7-2.8 1.9-3.8 1.2-.9 2.6-1.4 4.2-1.4s2.8.3 3.9.9c.2-1.1.6-2 1.5-2.7.9-.7 1.8-1 3-1l-.2 3.4c-1.7 0-2.6.6-2.7 1.7.8 1 1.1 1.9 1.1 2.9s-.1 1.8-.5 2.4c-.3.7-.8 1.2-1.4 1.7-1.2.9-2.6 1.4-4.4 1.4-1 0-1.8-.1-2.6-.4-.8.3-1.2.7-1.2 1.5 0 .9.8 1.4 2.3 1.4h4.9c3.4 0 5 1.2 5 3.5 0 .8-.2 1.5-.6 2.3-.4.78-.9 1.4-1.7 2-1.6 1.3-3.7 1.9-6.1 1.9-2.4 0-4.3-.5-5.8-1.5-1.4-.9-2.1-2.1-2.1-3.4 0-.9.28-1.6.8-2.1.6-.53 1.3-.86 2.2-1-1.2-.7-1.75-1.6-1.75-2.7 0-.7.2-1.3.66-1.8.45-.44 1-.8 1.7-1zm2.7 6.3c-1.9.1-2.8.8-2.8 2.1 0 .7.4 1.2 1.2 1.6.8.4 1.7.6 2.8.6 1.1 0 1.9-.1 2.5-.2.6-.2 1.1-.4 1.6-.7.9-.6 1.4-1.3 1.4-2.1 0-.3-.1-.6-.4-.9-.2-.2-.6-.3-1.1-.3H328zm3.9-12.1c-.4-.5-1.1-.7-2-.7-.9 0-1.6.3-2.1.8s-.7 1.1-.7 2c0 .8.3 1.5.8 2s1.2.8 2.1.8c1 0 1.6-.2 2.1-.7.5-.5.7-1.2.7-2s-.2-1.5-.6-2zm17.5 7.3c.1 1.4 1.1 2.1 3 2.1.8 0 1.4-.1 1.9-.5.5-.3.7-.7.7-1.1 0-.4-.1-.8-.4-1s-.7-.4-1.4-.6l-3.2-1.2c-2.3-.8-3.5-2.1-3.5-4 0-1.2.6-2.2 1.7-3 1.1-.8 2.6-1.1 4.5-1.1s3.3.4 4.3 1.2c1 .8 1.5 1.9 1.6 3.1H355c-.03-.5-.26-.9-.7-1.1-.4-.2-1-.4-1.8-.4-.76 0-1.36.2-1.8.5-.42.3-.64.7-.64 1.1 0 .7.6 1.3 1.77 1.6l3.45 1.3c1.15.4 2 .9 2.64 1.5.6.6.9 1.4.9 2.3 0 1.2-.6 2.3-1.7 3.1-1.2 1-2.77 1.4-4.7 1.4-1.95 0-3.5-.4-4.7-1.2-1.17-.83-1.77-2.02-1.8-3.6h3.3zm16.3-8.1c1-1.5 2.4-2.3 4.2-2.3 1.8 0 3.4.7 4.7 2.1 1.4 1.5 2.1 3.4 2.1 5.7 0 2.4-.7 4.3-2 5.7-1.3 1.4-2.8 2.1-4.6 2.1-1.8 0-3.1-.5-3.9-1.6v8.3h-3.6V207h2.9l.4 1.94zm3.6 9.8c.4 0 .9 0 1.3-.2.5-.2.9-.4 1.2-.8.8-.8 1.2-1.9 1.2-3.3s-.3-2.5-1-3.3c-.7-.8-1.5-1.2-2.5-1.2s-1.8.3-2.4.9c-.6.6-.9 1.4-1 2.5v2.6c0 .9.3 1.7 1 2.3.7.6 1.4.8 2.3.8zm15.5-5.7c1.2 0 2.5.2 4 .6v-1.5c0-1-.2-1.7-.6-2.2-.4-.5-1.1-.7-2-.7-.9 0-1.6.2-2.1.6-.5.4-.8.9-.8 1.6h-3.8c0-1.6.6-2.8 1.8-3.6 1.2-.7 2.8-1.1 4.9-1.1 3 0 5 1.1 5.9 3.2.3.7.46 1.6.46 2.6v9.2H389l-.3-1.9c-.92 1.6-2.36 2.4-4.3 2.4-1.87 0-3.33-.5-4.37-1.4-.94-.9-1.42-2-1.42-3.4s.5-2.4 1.6-3.1c1.1-.7 2.5-1.1 4.3-1.1zm4 2.8c-1.2-.3-2.3-.4-3.3-.4-1.9 0-2.9.7-2.9 1.9 0 .6.2 1 .7 1.4.5.4 1.2.6 2.1.6 1 0 1.8-.3 2.4-1 .7-.6 1-1.5 1.1-2.4zm13.4-9.2c1 0 1.8.2 2.5.5s1.4.7 1.9 1.2c1 1 1.6 2.2 1.8 3.7l-3.5.1c-.2-.6-.5-1.2-.9-1.6-.4-.4-.9-.6-1.5-.6s-1 .1-1.4.3c-.4.2-.74.5-1.04.8-.7.9-1 2-1 3.5s.3 2.6.97 3.3c.6.8 1.4 1.2 2.3 1.2.9 0 1.54-.2 1.95-.6.4-.4.6-1 .6-1.8h3.6c0 1.6-.52 3-1.6 4-1.1 1.1-2.6 1.6-4.5 1.6s-3.5-.7-4.8-2.1c-1.3-1.5-2-3.3-2-5.6s.7-4.2 2.1-5.6c1.3-1.3 2.96-2 4.9-2zm20.9 4.4c.2.9.4 1.6.4 2.3 0 .7 0 1.4-.1 1.9H414c.05 1.2.34 2.2.9 2.9.52.7 1.34 1.1 2.44 1.1 1.47 0 2.3-.6 2.6-1.9h3.5c-.22 1.4-.9 2.6-2 3.4-1.13.9-2.52 1.4-4.2 1.4-1.9 0-3.5-.7-4.8-2.1-1.33-1.4-2-3.3-2-5.6s.67-4.2 2-5.6c1.3-1.3 2.9-2 4.84-2 2 0 3.6.7 4.7 2.2.5.6.9 1.4 1.17 2.2zm-5.8-1.5c-1 0-1.8.3-2.4 1-.5.7-.9 1.5-1 2.5h6.2c0-1.5-.5-2.6-1.5-3.1-.4-.2-.8-.3-1.4-.3zm11.5 7.7c.1 1.4 1.1 2.1 3.1 2.1.8 0 1.4-.1 1.9-.5.5-.3.7-.7.7-1.1 0-.4-.1-.8-.4-1-.3-.2-.7-.4-1.4-.6l-3.2-1.1c-2.3-.8-3.5-2.2-3.5-4 0-1.2.5-2.2 1.7-3 1.1-.8 2.6-1.1 4.5-1.1s3.3.4 4.37 1.28c1 .8 1.55 1.8 1.6 3.1h-3.3c0-.5-.3-.9-.7-1.2-.4-.3-1-.4-1.8-.4s-1.4.1-1.8.4c-.4.3-.64.7-.64 1.1 0 .7.6 1.2 1.73 1.57l3.47 1.3c1.2.35 2 .83 2.66 1.43.6.6.9 1.3.9 2.3 0 1.2-.57 2.2-1.7 3.1-1.2.9-2.75 1.4-4.7 1.4s-3.5-.5-4.7-1.3c-1.2-.9-1.8-2.1-1.8-3.6h3.3z" fill="#FFF" />
    </g>
</svg>