<svg width="192" height="192" viewBox="0 0 192 192" xmlns="http://www.w3.org/2000/svg" xmlns:xlink="http://www.w3.org/1999/xlink">
  <title>
    agro-icon
  </title>
  <defs>
    <rect id="a" width="192" height="192" rx="27"/>
  </defs>
  <g fill="none" fill-rule="evenodd">
    <mask id="b" fill="#fff">
      <use xlink:href="#a"/>
    </mask>
    <use fill="#163133" xlink:href="#a"/>
    <g fill-rule="nonzero" fill="#6EF11D" mask="url(#b)">
      <path d="M119.8 72.2c-18 1-26.8 13.8-35 27.3-8.7-9.8-7.5-23.4 2.6-32 10.5-9 23-11 36.3-9.6 6 .5 12.2.6 18.3.3 3 0 6.2-1.6 9.6-2.5 0 19.5-4.3 37.5-20.2 50.4-10 8-21.5 9-33.5 3.8-1.4-.5-3.6-.7-4.6 0-10.7 8.2-18.3 18.3-20 32.2-2-4-1.2-11.5 2.2-17.5 2.8-4.8 6-9.5 9.8-13.5 3.2-3.5 5.6-7.2 7.7-11.3 2.7-5 5.6-9.8 8.7-14.5 4.4-6.6 10.6-10.8 18-13.3z"/>
      <path d="M79.7 101c-1.5-5.7-4.5-10.5-9-14-1-1-3-1.2-4.3-.8-7 2.4-13 1.2-18-4-6-6.4-8.2-14.2-8-22.4 5.8 0 11.3.2 16.8 0 5.2-.2 10 .8 14.2 4C77.2 68.3 78 74 74 80.5c-4.5-6-8.3-12.7-16.8-13.4 6.6 3 9.8 8.8 13 14.8.7 1.7 2 3.2 3.2 4.6 3.7 4 6.7 8.6 6.3 14.6z"/>
    </g>
  </g>
</svg>
