<svg width="1024" height="1024" viewBox="0 0 1024 1024" fill="none" xmlns="http://www.w3.org/2000/svg">
<mask id="mask0" mask-type="alpha" maskUnits="userSpaceOnUse" x="0" y="0" width="1024" height="1024">
<rect width="1024" height="1024" rx="176" fill="#00255C"/>
</mask>
<g mask="url(#mask0)">
<rect width="1024" height="1024" fill="#00255C"/>
<path d="M215.528 597.333C236.395 597.333 255.841 590.886 271.566 579.683C273.568 578.283 274.423 575.759 273.277 572.959L248.689 504.875C247.26 501.236 248.689 497.873 252.402 496.75L301.579 478.261C304.727 477.138 306.438 474.06 305.583 470.698C291.86 435.106 256.979 409.608 215.528 409.608C162.065 409.608 119.467 451.355 119.467 503.474C119.467 555.594 162.065 597.333 215.528 597.333ZM412.509 597.333C465.972 597.333 508.287 555.586 508.287 503.467C508.287 451.348 465.972 409.6 412.509 409.6C359.336 409.6 316.731 451.348 316.731 503.467C316.731 555.586 359.336 597.333 412.509 597.333ZM738.429 592.294H805.325C809.038 592.294 812.186 589.209 812.186 585.292V557.556C812.186 555.032 814.188 553.07 816.763 553.07H834.49C873.657 553.07 904.534 522.809 904.534 483.586C904.534 445.477 873.657 414.663 834.49 414.663H738.429C734.425 414.663 731.568 417.748 731.568 421.664V585.292C731.568 589.209 734.425 592.294 738.429 592.294ZM533.731 515.8C533.731 561.472 570.323 597.333 617.215 597.333C663.526 597.333 700.126 561.472 700.126 515.8V421.657C700.126 417.733 696.978 414.655 693.264 414.655H540.592C536.879 414.655 533.731 417.74 533.731 421.657V515.8Z" fill="white"/>
</g>
</svg>
