<svg xmlns="http://www.w3.org/2000/svg" xmlns:xlink="http://www.w3.org/1999/xlink" width="192" height="192" viewBox="0 0 192 192">
  <defs>
    <rect id="quidco-icon-a" width="192" height="192" rx="27"/>
    <filter id="quidco-icon-b" width="108.3%" height="108.3%" x="-4.2%" y="-3.6%" filterUnits="objectBoundingBox">
      <feOffset in="SourceAlpha" result="shadowOffsetOuter1"/>
      <feGaussianBlur in="shadowOffsetOuter1" result="shadowBlurOuter1" stdDeviation="1.5"/>
      <feColorMatrix in="shadowBlurOuter1" result="shadowMatrixOuter1" values="0 0 0 0 0   0 0 0 0 0   0 0 0 0 0  0 0 0 0.12 0"/>
      <feOffset dy="1" in="SourceAlpha" result="shadowOffsetOuter2"/>
      <feGaussianBlur in="shadowOffsetOuter2" result="shadowBlurOuter2" stdDeviation="1.5"/>
      <feColorMatrix in="shadowBlurOuter2" result="shadowMatrixOuter2" values="0 0 0 0 0   0 0 0 0 0   0 0 0 0 0  0 0 0 0.24 0"/>
      <feMerge>
        <feMergeNode in="shadowMatrixOuter1"/>
        <feMergeNode in="shadowMatrixOuter2"/>
      </feMerge>
    </filter>
    <filter id="quidco-icon-c" width="106.8%" height="106.8%" x="-3.4%" y="-2.9%" filterUnits="objectBoundingBox">
      <feOffset dy="1" in="SourceAlpha" result="shadowOffsetInner1"/>
      <feComposite in="shadowOffsetInner1" in2="SourceAlpha" k2="-1" k3="1" operator="arithmetic" result="shadowInnerInner1"/>
      <feColorMatrix in="shadowInnerInner1" values="0 0 0 0 1   0 0 0 0 1   0 0 0 0 1  0 0 0 0.2 0"/>
    </filter>
    <linearGradient id="quidco-icon-e" x1="0%" y1="0%" y2="100%">
      <stop offset="0%" stop-color="#FFF" stop-opacity=".24"/>
      <stop offset="79.46%" stop-color="#FFF" stop-opacity="0"/>
    </linearGradient>
    <rect id="quidco-icon-d" width="192" height="192" rx="27"/>
  </defs>
  <g fill="none" fill-rule="evenodd">
    <use fill="#000" filter="url(#quidco-icon-b)" xlink:href="#quidco-icon-a"/>
    <use fill="#1D7BCE" xlink:href="#quidco-icon-a"/>
    <use fill="#000" filter="url(#quidco-icon-c)" xlink:href="#quidco-icon-a"/>
    <mask id="quidco-icon-f" fill="#fff">
      <use xlink:href="#quidco-icon-d"/>
    </mask>
    <use fill="url(#quidco-icon-e)" xlink:href="#quidco-icon-d"/>
    <path fill="#000" fill-opacity=".04" d="M100.008852,65.5415003 C100.002959,65.2057061 100,64.8691979 100,64.5320003 C100,33.3102386 125.366943,8 156.658653,8 C187.950364,8 213.317307,33.3102386 213.317307,64.5320003 C213.317307,64.8691979 213.314348,65.2057061 213.308455,65.5415003 L213.317307,270.470001 L100,270.470001 L100,65.5415003 Z" mask="url(#quidco-icon-f)" transform="rotate(-45 156.659 139.235)"/>
    <path fill="#FFF" d="M81.2881061,113.797594 C78.1052505,109.542969 76.5163407,102.583483 76.5163407,92.9078251 L76.5163407,73.9285526 C76.5163407,64.2541512 78.1052505,57.2946657 81.2881061,53.0375268 C84.4709617,48.7879295 89.4001072,46.6587316 96.0780605,46.6587316 C102.757273,46.6587316 107.715376,48.7879295 110.949853,53.0375268 C114.181811,57.2946657 115.800938,64.2541512 115.800938,73.9285526 L115.800938,92.9078251 C115.800938,102.583483 114.181811,109.542969 110.949853,113.797594 C107.715376,118.048448 102.757273,120.18016 96.0780605,120.18016 C89.4001072,120.18016 84.4709617,118.048448 81.2881061,113.797594 Z M139.346263,50.4734397 C136.90876,44.0167163 133.578596,38.7502824 129.344441,34.6716242 C125.109028,30.5992504 120.133298,27.6342105 114.41977,25.7815318 C108.702465,23.9288531 102.560863,23 96,23 C89.4403965,23 83.2962765,23.9288531 77.5789713,25.7815318 C71.8629253,27.6342105 66.8884543,30.5992504 62.6555585,34.6716242 C58.4214037,38.7502824 55.0862041,44.0167163 52.6512189,50.4734397 C50.2174926,56.9289062 49,64.7631979 49,73.9700305 L49,92.8650903 C49,102.075694 50.2174926,109.906215 52.6512189,116.366709 C55.0862041,122.822175 58.4214037,128.087352 62.6555585,132.164754 C66.8884543,136.239641 71.8629253,139.202167 77.5789713,141.056103 C80.7001339,142.066655 83.9534958,142.790632 87.3264666,143.249403 C87.8514867,144.067648 88.413019,144.885894 89.0324672,145.704139 C91.9005626,149.505021 96.0516207,153.456732 101.478087,157.563042 C102.864291,158.608788 104.450683,159.688469 106.242298,160.8134 C108.032655,161.93456 109.843156,163.028067 111.670024,164.103978 C113.499411,165.176119 115.264586,166.121312 116.96681,166.947099 C118.674069,167.765344 120.085454,168.363631 121.194669,168.746987 C122.211974,169.049901 123.173882,169.271117 124.074096,169.410633 C124.979346,169.55015 125.729735,169.225868 126.329038,168.436532 L135.415537,156.460736 C136.011063,155.6714 136.223841,154.781511 136.038762,153.792326 C135.85746,152.800628 135.376507,152.008777 134.583311,151.411747 L134.286177,151.186761 C133.027136,150.388626 131.543986,149.424579 129.841763,148.292108 C128.140798,147.155865 126.36555,146.013338 124.526092,144.854471 C122.686633,143.695604 120.912644,142.549307 119.210421,141.418092 C118.483954,140.932926 117.814144,140.475413 117.180847,140.035496 C121.747388,138.184074 125.807795,135.568454 129.344441,132.164754 C133.578596,128.087352 136.90876,122.822175 139.346263,116.366709 C141.781248,109.906215 143,102.075694 143,92.8650903 L143,73.9700305 C143,64.7631979 141.781248,56.9289062 139.346263,50.4734397 L139.346263,50.4734397 Z" mask="url(#quidco-icon-f)"/>
  </g>
</svg>
