<svg xmlns="http://www.w3.org/2000/svg" xmlns:xlink="http://www.w3.org/1999/xlink" width="192" height="192" viewBox="0 0 192 192">
  <defs>
    <linearGradient id="vivy_icon-a" x1="50%" x2="50%" y1="30.033%" y2="98.313%">
      <stop offset="0%" stop-color="#00E4CD"/>
      <stop offset="100%" stop-color="#00B8E4"/>
    </linearGradient>
    <path id="vivy_icon-b" d="M109,75.986692 L118.630295,85.8878327 C123.972615,91.3707224 132.652118,91.3707224 137.98973,85.8878327 C140.573812,83.231075 142,79.6935707 142,75.93346 C142,72.1781887 140.573812,68.6406844 137.98973,65.988766 C132.816859,60.6704113 123.803167,60.6704113 118.635002,65.988766 L109,75.986692 Z M96.0141942,150 C93.5444024,150 91.17397,149.020476 89.4280827,147.274367 L40.4817295,98.2792322 C34.3640268,92.1607554 31,84.0311781 31,75.3810808 C31,66.7309836 34.3640268,58.6014064 40.4817295,52.4829294 C46.5947008,46.3644525 54.7232494,43 63.3722521,43 C72.0259863,43 80.1545349,46.3644525 86.2675062,52.4829294 L96.047314,62.2639749 L105.694643,52.5160535 C111.840734,46.3644525 119.969282,43 128.623017,43 C137.272019,43 145.400568,46.3644525 151.518271,52.4829294 C157.631242,58.6014064 161,66.7309836 161,75.3810808 C161,84.0311781 157.631242,92.1607554 151.518271,98.2792322 C138.890159,110.90421 118.351143,110.90421 105.727762,98.2792322 L96.1088223,88.6638068 L87.242175,97.6167522 C83.6273839,101.274589 77.7320571,101.302981 74.0794148,97.6830002 C70.4267724,94.0677516 70.3936526,88.1669467 74.0179065,84.5185742 L82.9413306,75.4993808 L73.104746,65.6568194 C67.9049352,60.4563506 58.839569,60.4563506 53.6492211,65.6568194 C51.0469501,68.2499558 49.6133353,71.7090483 49.6133353,75.3810808 C49.6133353,79.0578454 51.0469501,82.5169379 53.6492211,85.1148063 L96.0189256,127.518265 L108.438856,115.092031 C112.072572,111.453122 117.972631,111.453122 121.606347,115.092031 C125.244796,118.721475 125.244796,124.62228 121.606347,128.256457 L102.600306,147.274367 C100.849687,149.020476 98.483986,150 96.0141942,150 Z"/>
  </defs>
  <g fill="none" fill-rule="evenodd">
    <rect width="192" height="192" x="1" y="1" fill="#2D3539" fill-rule="nonzero" rx="40"/>
    <g fill-rule="nonzero" transform="matrix(-1 0 0 1 192 0)">
      <use fill="url(#vivy_icon-a)" fill-rule="evenodd" xlink:href="#vivy_icon-b"/>
      <use fill="#000" filter="url(#vivy_icon-c)" xlink:href="#vivy_icon-b"/>
    </g>
  </g>
</svg>
