<svg xmlns="http://www.w3.org/2000/svg" width="192" height="192" xmlns:xlink="http://www.w3.org/1999/xlink"><defs><linearGradient id="a" x1="3.66%" x2="99.1%" y1="3.2%" y2="99.35%"><stop stop-color="#47E15F" offset="0%"/><stop stop-color="#05AF12" offset="100%"/></linearGradient></defs><g fill="none" fill-rule="evenodd"><rect width="192" height="192" fill="url(#a)" rx="27"/><path fill="#FFF" d="M128.8 111.67c0-.47-10-14.74-10.46-14.74 1.42-6.53 3.03-20.38 2.73-21.27 1.43-.48 10.34-4 11.05-4.4 6.18 7.5 11.12 22.05 6.66 35.84-.95.95-8.08 3.62-9.98 4.57m-11.42 23.3c0-.95-.95-4.75-.95-5.23.95-.95 11.95-14.2 12.43-14.68.95-.48 8.97-4.34 9.44-4.34-4.16 12.13-15.74 21.64-20.92 24.25m-2.85-39.46c-.95.5-18.07 7.6-20.92 9.1-4.7-2.9-16.6-12.9-18-14.3 0-.5 1.5-12.3 2.9-18.5 6.7-4.8 13.4-8.8 21.4-9.5 2.9 1.4 18 12.9 18.1 13.3.2 1.2-2.8 18.6-3.3 20m-35.8 41.3c-.4-.9-.9-2.4-.9-2.8 2.4-.5 16.7-5.7 16.7-5.7 3.8 1 13.4 2.9 18.1 2.9 0 0 1.5 4.7 1.5 5.2-14.2 5.4-23.9 4-35.2.4m-1.9-6.2l-15.7-12.3C61 116 60 100.3 60 99.8c1.45-1 12.86-7.2 13.34-7.65 3.6 4.24 12.7 12.4 19 15.2V125c-4 2.74-15.3 5.7-15.3 5.7M52.2 88.86c.95 3.33 2.85 6.66 3.8 9.03 0 .4.95 16.6 1.43 19-5.3-8-7.73-20.9-5.23-28.1m50.5-37.3s-2.9 5.4-3.4 6.9c-8.2 1.4-16.1 4.8-21.8 8.9-.5 0-12.38-3.4-12.85-3.4 8.04-7.6 18.8-14.5 38.04-12.5m-6.7-3c-26.2 0-47.6 21.4-47.6 47.5s21.4 47.5 47.5 47.5 47.5-21.4 47.5-47.5S122.1 48.5 96 48.5"/><path fill="#F9F9F9" d="M145.07 133.44c-.26.35-.44.68-.56.97-.1.5-.2.8-.3 1.1v.8c0 .4.1.6.1.9l.2.7.3 1.2c.2.8.5 1.6.9 2.5.6 1.6 1.3 3.4 2.1 5.2.3.8.7 1.5 1 2.3-2.4-.8-5-1.7-7.3-2.4-1.1-.3-2.2-.6-3.3-.8-.5-.1-1-.2-1.4-.2-.5-.1-.9-.1-1.5-.1-.3 0-.7 0-1.2.1-.2 0-.5.1-.8.2-.3.1-.6.3-1 .5-5.4 3.5-11.1 6.4-17.2 8.4S102.7 158 96 158c-1.3 0-2.7 0-4-.1-8.12-.57-15.8-2.7-22.7-6.06-10.32-5.06-19-12.9-25.1-22.5-6.1-9.6-9.6-20.94-9.6-33 0-1.45.07-2.9.18-4.4.58-8.14 2.7-15.8 6.07-22.7 5-10.36 12.8-19.05 22.4-25.1 9.6-6.1 20.9-9.6 32.97-9.6 1.47 0 2.94.04 4.4.15 8.16.6 15.8 2.7 22.7 6.03 10.36 5.08 19.04 12.9 25.1 22.5 6.1 9.6 9.6 20.9 9.6 33 0 1.45-.06 2.9-.16 4.4-.9 12.5-5.4 23.9-12.5 33.1zm6.53 5.04l.03-.03-.03.03zm9.4-68.46c-4.84-12.07-12.94-22.53-23.3-30.24-5.17-3.85-10.92-7-17.1-9.32-6.18-2.32-12.8-3.8-19.7-4.28-1.67-.12-3.33-.18-4.98-.18-9.1 0-17.86 1.76-25.9 4.98-12.07 4.83-22.53 12.94-30.24 23.3-3.85 5.17-7 10.92-9.32 17.1-2.32 6.17-3.8 12.8-4.28 19.7-.12 1.67-.18 3.33-.18 4.98 0 9.1 1.76 17.85 4.98 25.9 4.83 12.06 12.94 22.53 23.3 30.23 5.17 3.8 10.92 7 17.1 9.3 6.17 2.3 12.8 3.8 19.7 4.3 1.54.1 3.08.1 4.6.1 7.6 0 14.88-1.3 21.7-3.6 6.5-2.2 12.57-5.2 18.2-8.7.5.1 1.23.2 2.07.4 1.5.4 3.35 1 5.26 1.6 2.9.9 5.9 2 8.2 2.9l2.8 1 .8.3 10 3.9-4.4-9.4c0-.1-.5-1.2-1.2-2.8-.5-1.3-1.3-2.8-2-4.5l-1.7-3.9c-.4-1-.8-1.9-1.1-2.8-.3-.7-.5-1.3-.7-1.9l-.6-1.7c7.5-10.2 12.2-22.66 13.1-36.17.1-1.7.2-3.35.2-5 0-9.1-1.72-17.86-5-25.9z"/></g></svg>