<svg xmlns="http://www.w3.org/2000/svg" width="192" height="192" xmlns:xlink="http://www.w3.org/1999/xlink"><defs><rect id="a" width="192" height="192" rx="27"/></defs><g fill="none" fill-rule="evenodd"><mask id="b" fill="#fff"><use xlink:href="#a"/></mask><use fill="#F89920" xlink:href="#a"/><path fill="#FFF" fill-rule="nonzero" d="M127.7 59.5c-5.7 0-10.4 3.7-12 8.7l-20-2c0-8-3.7-14.7-9.6-19l13.7-22.4c1 .3 2.5.6 4 .6 7 0 12.8-5.6 12.8-12.6s-6-12.8-13-12.8-12.7 5.7-12.7 12.8c0 3.6 1.6 6.8 4 9l-13 22.6c-3-1.3-6.5-2.2-10-2.2-6 0-11.6 2.3-16 5.8L44 37c1.3-1.7 2-4 2-6.4 0-7-5.7-12.7-12.8-12.7-7 0-12.7 5.3-12.7 12.3S26.2 43 33.2 43c2.7 0 5-.7 7.3-2L52 52c-3.2 4-5 9.2-5 14.6 0 1.6.2 3.5.5 5l-23.3 7.8c-2.2-4-6.2-6.4-11-6.4C6.2 73 .6 78.7.6 85.7c0 7 5.7 12.7 12.8 12.7 7 0 12.7-5.7 12.7-12.7v-1.3l23.7-8c3.8 8.5 12.2 14.2 22 14.2 1 0 2 0 2.8-.2l4.4 19.2c-4.5 2-7.4 6.4-7.4 11.4 0 7 5.7 12.7 12.8 12.7 7 0 13-5.7 13-12.7 0-7-6-12.7-13-12.7l-5-19.3c8-2.8 14-9.4 15.8-17.8l20 2c.5 6.4 6 11.2 12.4 11.2 7 0 12.8-5.7 12.8-12.7-.2-6.5-6-12.2-12.8-12.2z" transform="translate(26 29)" mask="url(#b)"/></g></svg>