<svg xmlns="http://www.w3.org/2000/svg" width="172" height="192" xmlns:xlink="http://www.w3.org/1999/xlink"><defs><path id="a" d="M154.16 173.7l-12.8-22.1c18.65-15.8 30.53-39.3 30.53-65.63C171.9 38.5 133.4 0 86 0 38.6 0 .06 38.52.06 85.97c0 26.33 11.86 49.9 30.57 65.7l-12.87 22.1c-.35.74-.58 1.44-.7 2.2L16 190.43c-.1.56.24 1.03.7 1.34.48.3 1 .23 1.48-.07l12-8.14c.65-.47 1.18-1.03 1.58-1.64l12.1-20.98c12.4 7.02 26.77 11.04 42.1 11.04 15.28 0 29.7-4.07 42.15-11.1l12.2 20.95c.4.7 1 1.24 1.6 1.63l12.1 8.2c.5.32 1 .32 1.48.08.47-.3.7-.77.7-1.33L155 176c-.14-.7-.3-1.5-.78-2.2h.07z"/></defs><g fill="none" fill-rule="evenodd"><path fill="#7CB342" fill-rule="nonzero" d="M86 0C38.6 0 .06 38.52.06 85.97H171.9C171.95 38.45 133.45 0 86 0z"/><path fill="#8BC34A" fill-rule="nonzero" d="M86 85.97H.06C.06 133.4 38.6 171.9 86 171.9s85.9-38.48 85.9-85.9H86v-.03z"/><mask id="b" fill="#fff"><use xlink:href="#a"/></mask><path fill="#000" fill-opacity=".1" fill-rule="nonzero" d="M147.92 86.1v-.13h-3.98L96 37.97H76.05v16.1h-5.07c-4.9 0-9 4.07-9 9V83.5h.1c-.08.7.4 1.53 1.34 2.56.07.05.07.05.07.14l3.1 3.13-36 62.45c4.1 3.5 8.5 6.54 13.2 9.2 12.4 7 26.7 11.1 42.1 11.1 15.3 0 29.7-4.07 42.1-11.1 4.65-2.66 9.1-5.8 13.26-9.23 12.7-10.75 22.14-24.95 27-41.27.3-1.03.53-2.04.86-2.97l-21.4-21.4v.1z" mask="url(#b)"/><path fill="#646464" fill-rule="nonzero" d="M154.86 175.98c-.07-.77-.3-1.47-.7-2.2l-25.02-43.33C140.74 119.22 148 103.4 148 86h-16c0 11.38-4.22 21.86-11.2 30l-15.4-26.76 3.08-3.13c1.03-1 1.4-1.9 1.4-2.6h.1V63.1c0-4.9-4.07-9-8.98-9h-5V38H76.1v16.1H71c-4.9 0-9 4.06-9 9v20.4h.1c-.08.74.4 1.63 1.42 2.6l3.13 3.14-48.88 84.47c-.35.7-.58 1.5-.7 2.2l-1.05 14.5c-.1.6.23 1.1.7 1.4.47.3 1 .3 1.47 0l12-8.1c.6-.4 1.1-1 1.5-1.6l24.1-41.8c8.9 5 19.2 7.9 30.1 7.9 10.9 0 21.2-2.9 30.1-7.95L140.1 182c.4.7.93 1.24 1.58 1.63l12.02 8.2c.45.3 1 .3 1.46.07.46-.3.7-.8.7-1.34L154.8 176l.03.02zM86 61.98v-.17l.06.2C92.6 62.1 98 67.4 98 74s-5.4 11.97-11.94 12.04H86c-6.56 0-11.94-5.43-11.94-12.07 0-6.7 5.3-12.02 11.93-12.02v.02zm0 69.92c-8.05 0-15.63-2.1-22.1-5.7l14.5-25.15 3.03 3.04c1.26 1.2 2.92 1.8 4.44 1.8v-.1H86c1.6 0 3.2-.6 4.4-1.9l3-3.07 14.5 25.26c-6.4 3.6-14 5.6-22 5.6z" mask="url(#b)"/><path fill="#E1E1E1" fill-rule="nonzero" d="M154.86 175.98c-.07-.77-.3-1.47-.7-2.2l-25.02-43.33L120.9 116l-15.48-26.76-11.78 11.8 14.5 25.27 8 13.8 24.13 41.8c.37.7.94 1.3 1.54 1.7l12.1 8.2c.5.3 1 .3 1.5.1.5-.3.7-.8.7-1.3l-1.2-14.5z" mask="url(#b)"/><path fill="#F1F1F1" fill-rule="nonzero" d="M132 85.97c0 11.4-4.22 21.86-11.2 30-3.6 4.12-7.8 7.63-12.62 10.3-6.54 3.66-14.14 5.7-22.2 5.7-8.03 0-15.6-2.1-22.1-5.7L78.4 101 66.64 89.22l-48.86 84.54c-.35.75-.58 1.45-.7 2.22l-1.05 14.55c-.1.53.23 1 .7 1.3.47.33 1 .24 1.47-.06l12-8.14c.65-.47 1.18-1 1.58-1.64l24.1-41.8c8.92 4.9 19.24 7.8 30.16 7.8 10.94 0 21.23-2.9 30.17-7.9 4.8-2.7 9.2-6 13-9.7 11.6-11.2 18.8-27 18.8-44.4l-16-.1h.1z" mask="url(#b)"/></g></svg>