<svg width="1024" height="1024" viewBox="0 0 1024 1024" xmlns="http://www.w3.org/2000/svg">
  <title>
    Illustrator
  </title>
  <defs>
    <radialGradient cx="39.9%" cy="33.3%" fx="39.9%" fy="33.3%" r="65.2%" id="a">
      <stop stop-color="#1C0A00" stop-opacity=".8" offset="0%"/>
      <stop stop-color="#1C0A00" offset="76.7%"/>
    </radialGradient>
  </defs>
  <g fill="none" fill-rule="evenodd">
    <path fill="url(#a)" d="M35.2 35.2h774.6v753.6H35.2" transform="translate(90 100)"/>
    <path d="M90 100v824h845V100H90zm35.2 35.2h774.6v753.6H125.2V135.2z" fill="#F37021"/>
    <path d="M383 566.6l-27.8 105.6c-.5 3-1.7 3.5-5.2 3.5h-51.7c-3.5 0-4-1-3.5-5.2l100-350.2c1.7-6.4 2.8-12 3.4-29.3 0-2.3 1.2-3.5 3-3.5h73.7c2.2 0 3.4.6 4 3.5l112 380c.7 3 0 4.7-2.8 4.7h-58c-3 0-4.8-.6-5.3-3l-29.2-106H383zm98.3-57.2c-10-39-33-124.3-41.8-165.5h-.6c-7.7 41-26.3 110.7-40.8 165.4h83zm158.4-195.8c0-22.6 15.7-36 36-36 21.5 0 36 14.6 36 36 0 23.3-15 36-36.6 36-20.8 0-35.3-12.7-35.3-36zm4 80c0-2.8 1-4 4-4H703c3 0 4 1.2 4 4v278c0 3-.6 4-4 4h-54.7c-3.5 0-4.6-1.6-4.6-4.5V393.8z" fill="#FF7F18"/>
  </g>
</svg>
