<svg width="1024" height="1024" viewBox="0 0 1024 1024" xmlns="http://www.w3.org/2000/svg">
  <title>
    invision
  </title>
  <g fill="none" fill-rule="evenodd">
    <path d="M838 115H187c-39.7 0-72 32.3-72 72v651c0 39.7 32.3 72 72 72h651c39.7 0 72-32.3 72-72V187c0-39.7-32.3-72-72-72" fill="#DC395F"/>
    <path d="M380.7 365c26.4 0 48.6-20.6 48.6-47.7 0-27.2-22.2-48-48.6-48-26.4 0-48.6 20.8-48.6 48 0 27 22.3 47.8 48.7 47.8M280 621.5c-3 12-4.3 25.2-4.3 36 0 42 23 70 71.4 70 40.4 0 73-24 96.6-62.5l-14.4 57.5h80L555 539.2c11.3-46.4 33.5-70.5 67-70.5 26.5 0 43 16.4 43 43.5 0 8-.8 16.5-3.7 25.8l-23.6 84.2c-3.5 12.2-5 24.3-5 35.7 0 40 23.6 69.2 73 69.2 42 0 75.6-27 94.2-92L768.3 623c-15.7 43.5-29.2 51.4-40 51.4-10.7 0-16.4-7.2-16.4-21.4 0-6.5 1.5-13.6 3.6-22.2l23-82c5.6-19.4 7.7-36.5 7.7-52.2 0-61.4-37-93.5-82-93.5-42.3 0-85 38.2-106.5 78.2l15.7-71.8h-122L434 472.6h57l-35 141c-27.7 61.3-78.4 62.3-84.8 61-10.4-2.5-17-6.5-17-20 0-8 1.3-19.2 5-32.8l53.4-212.4H277l-17 63.2h56.4L280 621.4" fill="#FFF"/>
  </g>
</svg>
