<svg width="1024" height="1024" viewBox="0 0 1024 1024" xmlns="http://www.w3.org/2000/svg" xmlns:xlink="http://www.w3.org/1999/xlink">
  <title>
    sketch
  </title>
  <defs>
    <path id="a" d="M234 94l278.8-30L790 94l218 290-496 576L16 384z"/>
    <linearGradient x1="28.8%" y1="30.6%" x2="94.1%" y2="10.6%" id="c">
      <stop stop-color="#FDC003" offset="0%"/>
      <stop stop-color="#FDD12B" offset="100%"/>
    </linearGradient>
  </defs>
  <g fill="none" fill-rule="evenodd">
    <mask id="b" fill="#fff">
      <use xlink:href="#a"/>
    </mask>
    <use fill="#FEEEB7" xlink:href="#a"/>
    <path fill="#EA6C00" mask="url(#b)" d="M806 384h202L512 960M218 384H16l496 576"/>
    <path fill="#FDAD00" mask="url(#b)" d="M218 384l588 .2-294 576"/>
    <path fill="url(#c)" mask="url(#b)" d="M790 94l16 290L513 64"/>
    <path fill="#FDAD00" mask="url(#b)" d="M790 94l16 290h202M234 94l-16 290H16"/>
    <path fill="url(#c)" mask="url(#b)" d="M234 94l-16 290L512.8 64"/>
    <path fill="#FEEEB7" mask="url(#b)" d="M218 384h588L512.8 64"/>
  </g>
</svg>
